<svg width="369" height="186" viewBox="0 0 369 186" fill="none" xmlns="http://www.w3.org/2000/svg">
<path fill-rule="evenodd" clip-rule="evenodd" d="M296.522 36.2824C297.285 34.8125 296.384 33.027 294.748 32.7679C293.974 32.6453 293.188 32.904 292.639 33.4626L287.834 38.3454L284.593 37.832L283.516 38.6146L282.043 47.9135L282.826 48.9907L296.419 51.1436L300.18 45.8838C301.297 44.3219 301.289 42.2206 300.16 40.6672C299.465 39.7101 298.417 39.0684 297.249 38.8833L295.329 38.5793L296.522 36.2824ZM289.048 39.7964L293.981 34.7833C294.104 34.6582 294.28 34.6002 294.453 34.6277C294.82 34.6857 295.022 35.0856 294.851 35.4148L292.455 40.0304L296.954 40.7431C297.63 40.85 298.235 41.2209 298.637 41.774C299.289 42.6717 299.293 43.886 298.648 44.7886L295.564 49.1018L287.77 47.8673L289.048 39.7964ZM285.91 47.5727L284.05 47.2782L285.228 39.8391L287.088 40.1336L285.91 47.5727Z" fill="black"/>
<g filter="url(#filter0_d_98_350)">
<path fill-rule="evenodd" clip-rule="evenodd" d="M295.718 35.1769C296.481 33.707 295.58 31.9215 293.944 31.6624C293.17 31.5398 292.385 31.7986 291.835 32.3571L287.031 37.2399L283.79 36.7266L282.712 37.5092L281.24 46.808L282.022 47.8852L295.615 50.0381L299.376 44.7783C300.493 43.2164 300.485 41.1151 299.357 39.5617C298.661 38.6046 297.614 37.9629 296.445 37.7778L294.526 37.4738L295.718 35.1769ZM288.245 38.6909L293.177 33.6778C293.301 33.5527 293.476 33.4947 293.65 33.5222C294.016 33.5802 294.218 33.9802 294.047 34.3094L291.651 38.9249L296.151 39.6376C296.826 39.7446 297.431 40.1154 297.833 40.6685C298.485 41.5662 298.49 42.7805 297.845 43.6831L294.761 47.9963L286.966 46.7618L288.245 38.6909ZM285.106 46.4673L283.247 46.1727L284.425 38.7336L286.285 39.0282L285.106 46.4673Z" fill="#A92F2F"/>
</g>
<path fill-rule="evenodd" clip-rule="evenodd" d="M294.915 34.071C295.678 32.6011 294.777 30.8156 293.141 30.5565C292.367 30.4339 291.581 30.6926 291.032 31.2512L286.227 36.1339L282.986 35.6206L281.909 36.4032L280.436 45.7021L281.219 46.7792L294.812 48.9322L298.573 43.6723C299.69 42.1104 299.682 40.0092 298.553 38.4558C297.858 37.4986 296.811 36.857 295.642 36.6719L293.722 36.3679L294.915 34.071ZM287.441 37.5849L292.374 32.5718C292.497 32.4467 292.673 32.3888 292.846 32.4162C293.213 32.4743 293.415 32.8742 293.244 33.2034L290.848 37.819L295.347 38.5317C296.023 38.6386 296.628 39.0095 297.03 39.5626C297.682 40.4602 297.687 41.6746 297.041 42.5772L293.957 46.8904L286.163 45.6559L287.441 37.5849ZM284.303 45.3613L282.443 45.0667L283.621 37.6276L285.481 37.9222L284.303 45.3613Z" fill="white"/>
<path d="M291.897 91.3531L276.702 88.9465C275.866 88.8141 275.291 88.022 275.423 87.1863C275.556 86.3505 276.348 85.775 277.183 85.9074L292.379 88.3141C293.214 88.4465 293.79 89.2386 293.657 90.0743C293.525 90.91 292.733 91.4855 291.897 91.3531Z" stroke="black" stroke-width="2" stroke-miterlimit="10" stroke-linecap="round" stroke-linejoin="round"/>
<path d="M288.452 103.269L276.296 101.343L276.702 88.9465L291.897 91.3532L288.452 103.269Z" stroke="black" stroke-width="2" stroke-miterlimit="10" stroke-linecap="round" stroke-linejoin="round"/>
<path d="M287.339 90.6311L284.654 102.667" stroke="black" stroke-width="2" stroke-miterlimit="10" stroke-linecap="round" stroke-linejoin="round"/>
<path d="M280.095 101.945L281.261 89.6685" stroke="black" stroke-width="2" stroke-miterlimit="10" stroke-linecap="round" stroke-linejoin="round"/>
<path d="M292.227 88.29C292.339 88.0741 292.463 87.7823 292.499 87.5543C292.667 86.4907 292.116 85.5466 291.176 85.0863C291.288 84.8704 291.413 84.5785 291.461 84.2746C291.665 82.983 290.834 81.8389 289.542 81.6343C288.935 81.5381 288.367 81.6818 287.927 82.0015C288.043 80.7738 287.2 79.7057 285.984 79.5132C284.769 79.3206 283.637 80.0759 283.368 81.2795C283.048 80.8394 282.553 80.5273 281.945 80.431C280.653 80.2264 279.509 81.0577 279.305 82.3493C279.256 82.6532 279.284 82.9691 279.324 83.2091C278.288 83.3566 277.472 84.084 277.304 85.1477C277.256 85.4516 277.295 85.6915 277.335 85.9315" stroke="black" stroke-width="2" stroke-miterlimit="10" stroke-linecap="round" stroke-linejoin="round"/>
<g filter="url(#filter1_d_98_350)">
<path d="M291.258 90.473L276.063 88.0663C275.227 87.934 274.651 87.1419 274.784 86.3061C274.916 85.4704 275.708 84.8949 276.544 85.0273L291.739 87.434C292.575 87.5663 293.15 88.3584 293.018 89.1942C292.886 90.0299 292.094 90.6054 291.258 90.473Z" stroke="#A92F2F" stroke-width="2" stroke-miterlimit="10" stroke-linecap="round" stroke-linejoin="round"/>
<path d="M287.813 102.389L275.657 100.463L276.063 88.0667L291.258 90.4733L287.813 102.389Z" stroke="#A92F2F" stroke-width="2" stroke-miterlimit="10" stroke-linecap="round" stroke-linejoin="round"/>
<path d="M286.699 89.7509L284.014 101.787" stroke="#A92F2F" stroke-width="2" stroke-miterlimit="10" stroke-linecap="round" stroke-linejoin="round"/>
<path d="M279.456 101.065L280.621 88.7883" stroke="#A92F2F" stroke-width="2" stroke-miterlimit="10" stroke-linecap="round" stroke-linejoin="round"/>
<path d="M291.587 87.4099C291.699 87.194 291.823 86.9021 291.86 86.6742C292.028 85.6105 291.477 84.6665 290.537 84.2062C290.649 83.9903 290.773 83.6984 290.821 83.3945C291.026 82.1029 290.195 80.9588 288.903 80.7542C288.295 80.658 287.727 80.8016 287.287 81.1214C287.404 79.8937 286.561 78.8256 285.345 78.633C284.129 78.4405 282.997 79.1958 282.729 80.3994C282.409 79.9593 281.913 79.6471 281.305 79.5509C280.014 79.3463 278.87 80.1776 278.665 81.4692C278.617 81.7731 278.645 82.089 278.685 82.329C277.649 82.4764 276.833 83.2039 276.664 84.2675C276.616 84.5714 276.656 84.8114 276.696 85.0514" stroke="#A92F2F" stroke-width="2" stroke-miterlimit="10" stroke-linecap="round" stroke-linejoin="round"/>
</g>
<path d="M290.618 89.5931L275.423 87.1864C274.587 87.0541 274.012 86.262 274.144 85.4263C274.277 84.5905 275.069 84.015 275.905 84.1474L291.1 86.5541C291.935 86.6865 292.511 87.4785 292.379 88.3143C292.246 89.15 291.454 89.7255 290.618 89.5931Z" stroke="white" stroke-width="2" stroke-miterlimit="10" stroke-linecap="round" stroke-linejoin="round"/>
<path d="M287.174 101.509L275.018 99.5834L275.423 87.1865L290.619 89.5932L287.174 101.509Z" stroke="white" stroke-width="2" stroke-miterlimit="10" stroke-linecap="round" stroke-linejoin="round"/>
<path d="M286.06 88.8711L283.375 100.907" stroke="white" stroke-width="2" stroke-miterlimit="10" stroke-linecap="round" stroke-linejoin="round"/>
<path d="M278.816 100.185L279.982 87.9084" stroke="white" stroke-width="2" stroke-miterlimit="10" stroke-linecap="round" stroke-linejoin="round"/>
<path d="M290.948 86.53C291.06 86.3141 291.184 86.0223 291.22 85.7943C291.389 84.7307 290.837 83.7866 289.898 83.3263C290.01 83.1104 290.134 82.8185 290.182 82.5146C290.386 81.223 289.555 80.0789 288.264 79.8743C287.656 79.7781 287.088 79.9218 286.648 80.2415C286.764 79.0138 285.921 77.9457 284.706 77.7531C283.49 77.5606 282.358 78.3159 282.089 79.5195C281.77 79.0794 281.274 78.7673 280.666 78.671C279.374 78.4664 278.23 79.2977 278.026 80.5893C277.978 80.8932 278.005 81.2091 278.045 81.4491C277.01 81.5965 276.193 82.324 276.025 83.3876C275.977 83.6916 276.017 83.9315 276.057 84.1715" stroke="white" stroke-width="2" stroke-miterlimit="10" stroke-linecap="round" stroke-linejoin="round"/>
<path d="M284.439 135.189C283.63 134.076 282.441 133.349 281.083 133.134C279.726 132.919 278.366 133.246 277.253 134.055L276.671 134.477L276.243 133.887C275.434 132.774 274.238 132.038 272.881 131.823C271.527 131.609 270.167 131.936 269.059 132.741C267.946 133.55 267.214 134.742 267.003 136.1C266.788 137.458 267.12 138.814 267.928 139.927L274.077 148.39C274.162 148.507 274.29 148.583 274.422 148.604C274.554 148.625 274.698 148.596 274.816 148.511L283.292 142.377C284.405 141.568 285.136 140.376 285.351 139.018C285.57 137.661 285.247 136.302 284.439 135.189ZM282.671 141.517L274.622 147.34L268.785 139.305C268.143 138.422 267.883 137.344 268.054 136.266C268.224 135.189 268.801 134.243 269.683 133.606C270.562 132.967 271.64 132.707 272.714 132.877C273.791 133.048 274.74 133.629 275.382 134.512L276.122 135.531C276.295 135.769 276.626 135.822 276.865 135.648L277.874 134.915C278.757 134.273 279.839 134.014 280.913 134.184C281.987 134.354 282.932 134.934 283.574 135.814C284.216 136.697 284.472 137.774 284.301 138.852C284.134 139.93 283.554 140.875 282.671 141.517Z" fill="black"/>
<path d="M284.975 134.62C284.117 133.381 282.848 132.577 281.395 132.346C279.941 132.116 278.481 132.493 277.282 133.406L276.656 133.884L276.2 133.226C275.342 131.986 274.066 131.172 272.613 130.942C271.163 130.712 269.703 131.089 268.509 131.999C267.31 132.913 266.517 134.253 266.28 135.775C266.039 137.296 266.384 138.812 267.242 140.052L273.767 149.478C273.858 149.608 273.994 149.692 274.135 149.715C274.277 149.737 274.432 149.704 274.558 149.607L283.691 142.675C284.89 141.761 285.683 140.421 285.924 138.9C286.169 137.379 285.834 135.86 284.975 134.62ZM283.032 141.717L274.36 148.298L268.165 139.349C267.484 138.365 267.213 137.161 267.404 135.953C267.596 134.746 268.221 133.683 269.172 132.962C270.119 132.241 271.276 131.941 272.426 132.123C273.579 132.306 274.592 132.949 275.273 133.933L276.058 135.067C276.242 135.333 276.596 135.389 276.854 135.193L277.941 134.364C278.893 133.639 280.055 133.341 281.204 133.523C282.354 133.705 283.362 134.347 284.044 135.326C284.725 136.31 284.991 137.514 284.8 138.722C284.613 139.93 283.983 140.992 283.032 141.717Z" fill="black"/>
<g filter="url(#filter2_d_98_350)">
<path d="M283.733 134.218C282.925 133.105 281.736 132.378 280.378 132.163C279.021 131.948 277.661 132.275 276.548 133.084L275.966 133.506L275.537 132.916C274.729 131.803 273.533 131.067 272.176 130.852C270.822 130.638 269.462 130.965 268.353 131.77C267.24 132.579 266.509 133.771 266.298 135.129C266.083 136.487 266.415 137.844 267.223 138.957L273.372 147.42C273.457 147.537 273.585 147.613 273.717 147.634C273.849 147.655 273.993 147.626 274.11 147.541L282.587 141.406C283.7 140.597 284.431 139.405 284.646 138.047C284.865 136.69 284.542 135.331 283.733 134.218ZM281.966 140.546L273.917 146.369L268.079 138.335C267.438 137.451 267.178 136.373 267.348 135.296C267.519 134.218 268.096 133.273 268.978 132.635C269.857 131.996 270.935 131.736 272.009 131.907C273.086 132.077 274.035 132.658 274.677 133.541L275.417 134.56C275.59 134.799 275.921 134.851 276.16 134.678L277.169 133.944C278.052 133.302 279.134 133.043 280.208 133.213C281.282 133.383 282.227 133.964 282.869 134.843C283.511 135.726 283.767 136.804 283.596 137.881C283.429 138.959 282.849 139.904 281.966 140.546Z" fill="#A92F2F"/>
<g filter="url(#filter3_d_98_350)">
<path d="M284.27 133.65C283.412 132.41 282.143 131.606 280.69 131.376C279.236 131.145 277.776 131.522 276.577 132.436L275.95 132.913L275.495 132.255C274.637 131.016 273.361 130.202 271.908 129.971C270.458 129.742 268.998 130.118 267.804 131.028C266.605 131.942 265.812 133.282 265.575 134.804C265.334 136.326 265.679 137.842 266.537 139.081L273.062 148.507C273.153 148.637 273.289 148.722 273.43 148.744C273.572 148.766 273.727 148.733 273.853 148.637L282.986 141.704C284.185 140.791 284.978 139.45 285.219 137.929C285.464 136.408 285.128 134.889 284.27 133.65ZM282.327 140.746L273.655 147.327L267.459 138.378C266.778 137.395 266.508 136.19 266.699 134.982C266.891 133.775 267.516 132.712 268.467 131.991C269.414 131.27 270.571 130.971 271.721 131.153C272.874 131.335 273.887 131.978 274.568 132.962L275.353 134.096C275.537 134.362 275.891 134.418 276.149 134.222L277.236 133.394C278.188 132.669 279.35 132.37 280.499 132.552C281.649 132.734 282.657 133.376 283.339 134.356C284.02 135.339 284.286 136.543 284.095 137.751C283.908 138.959 283.278 140.021 282.327 140.746Z" fill="#A92F2F"/>
</g>
</g>
<path d="M283.028 133.248C282.219 132.135 281.031 131.408 279.673 131.193C278.315 130.978 276.955 131.305 275.842 132.114L275.261 132.536L274.832 131.946C274.023 130.833 272.828 130.097 271.47 129.882C270.117 129.667 268.757 129.994 267.648 130.8C266.535 131.608 265.804 132.801 265.593 134.159C265.378 135.517 265.709 136.873 266.518 137.986L272.667 146.449C272.752 146.566 272.879 146.642 273.012 146.663C273.144 146.684 273.288 146.655 273.405 146.57L281.882 140.436C282.995 139.627 283.726 138.435 283.941 137.077C284.16 135.72 283.837 134.361 283.028 133.248ZM281.26 139.575L273.212 145.399L267.374 137.364C266.732 136.481 266.472 135.403 266.643 134.325C266.814 133.248 267.39 132.302 268.273 131.664C269.152 131.026 270.23 130.766 271.303 130.936C272.381 131.107 273.33 131.688 273.971 132.571L274.711 133.589C274.885 133.828 275.216 133.881 275.454 133.707L276.464 132.974C277.347 132.332 278.429 132.073 279.503 132.243C280.576 132.413 281.521 132.993 282.164 133.872C282.805 134.756 283.061 135.833 282.891 136.911C282.724 137.989 282.144 138.934 281.26 139.575Z" fill="white"/>
<path d="M283.565 132.679C282.707 131.44 281.438 130.635 279.984 130.405C278.531 130.175 277.071 130.551 275.871 131.465L275.245 131.942L274.79 131.285C273.932 130.045 272.656 129.231 271.202 129.001C269.753 128.771 268.293 129.148 267.099 130.058C265.899 130.972 265.106 132.312 264.87 133.834C264.629 135.355 264.973 136.871 265.832 138.111L272.357 147.536C272.447 147.667 272.583 147.751 272.725 147.773C272.867 147.796 273.021 147.762 273.148 147.666L282.281 140.734C283.48 139.82 284.273 138.48 284.514 136.959C284.759 135.438 284.423 133.919 283.565 132.679ZM281.621 139.776L272.949 146.357L266.754 137.408C266.073 136.424 265.803 135.22 265.994 134.012C266.185 132.804 266.811 131.742 267.762 131.021C268.708 130.299 269.866 130 271.015 130.182C272.169 130.365 273.182 131.008 273.863 131.992L274.648 133.126C274.832 133.392 275.186 133.448 275.443 133.252L276.531 132.423C277.483 131.698 278.644 131.399 279.794 131.582C280.943 131.764 281.952 132.406 282.633 133.385C283.314 134.369 283.581 135.573 283.389 136.781C283.202 137.989 282.573 139.051 281.621 139.776Z" fill="white"/>
<path d="M316.365 166.964L295.387 163.641L295.725 161.508L316.703 164.83L316.365 166.964ZM316.872 163.764L295.894 160.441L296.401 157.241L317.379 160.563L316.872 163.764ZM317.886 157.363L296.907 154.041L297.076 152.974L318.055 156.297L317.886 157.363ZM318.224 155.227L297.246 151.904L297.584 149.771L318.562 153.094L318.224 155.227ZM319.069 149.894L298.091 146.571L298.259 145.504L319.238 148.827L319.069 149.894ZM319.407 147.76L298.428 144.438L298.597 143.371L319.576 146.694L319.407 147.76ZM320.083 143.491L299.105 140.168L299.274 139.101L320.252 142.424L320.083 143.491ZM320.759 139.224L299.78 135.901L300.118 133.768L321.097 137.09L320.759 139.224ZM321.266 136.024L300.287 132.701L300.456 131.634L321.435 134.957L321.266 136.024ZM321.942 131.754L300.964 128.431L301.301 126.298L322.28 129.621L321.942 131.754ZM322.787 126.421L301.808 123.098L301.977 122.031L322.956 125.354L322.787 126.421ZM323.125 124.287L302.146 120.965L302.653 117.764L323.632 121.087L323.125 124.287ZM323.801 120.018L302.822 116.695L302.991 115.628L323.97 118.951L323.801 120.018ZM324.477 115.751L303.498 112.428L303.836 110.295L324.815 113.617L324.477 115.751ZM324.984 112.551L304.005 109.228L304.174 108.161L325.153 111.484L324.984 112.551ZM325.66 108.281L304.681 104.958L304.85 103.892L325.829 107.214L325.66 108.281ZM325.998 106.148L305.019 102.825L305.357 100.692L326.336 104.014L325.998 106.148ZM326.842 100.814L305.864 97.4915L306.033 96.4248L327.011 99.7475L326.842 100.814ZM327.519 96.5446L306.54 93.2219L306.709 92.1552L327.688 95.4779L327.519 96.5446ZM328.194 92.2778L307.216 88.9551L307.385 87.8884L328.363 91.211L328.194 92.2778ZM328.87 88.0109L307.892 84.6883L308.23 82.5549L329.208 85.8775L328.87 88.0109ZM329.378 84.8081L308.399 81.4854L308.568 80.4187L329.547 83.7413L329.378 84.8081ZM329.715 82.6746L308.737 79.352L308.906 78.2853L329.884 81.6079L329.715 82.6746ZM330.391 78.4078L309.413 75.0852L309.751 72.9518L330.729 76.2744L330.391 78.4078ZM331.236 73.0715L310.258 69.7489L310.596 67.6155L331.574 70.9381L331.236 73.0715ZM332.081 67.738L311.103 64.4154L311.272 63.3486L332.25 66.6713L332.081 67.738ZM332.419 65.6046L311.441 62.2819L311.947 59.0818L332.926 62.4045L332.419 65.6046ZM333.095 61.335L312.117 58.0124L312.624 54.8122L333.602 58.1349L333.095 61.335ZM333.771 57.0682L312.793 53.7455L313.299 50.5454L334.278 53.8681L333.771 57.0682ZM334.447 52.8014L313.468 49.4787L313.806 47.3453L334.785 50.668L334.447 52.8014ZM334.954 49.5985L313.976 46.2758L314.145 45.2091L335.123 48.5318L334.954 49.5985ZM335.63 45.3317L314.652 42.009L314.989 39.8756L335.968 43.1983L335.63 45.3317ZM336.137 42.1316L315.158 38.8089L315.327 37.7422L336.306 41.0649L336.137 42.1316ZM336.813 37.862L315.835 34.5393L316.173 32.4059L337.151 35.7286L336.813 37.862ZM337.32 34.6619L316.341 31.3392L316.848 28.1391L337.827 31.4618L337.32 34.6619ZM338.334 28.2617L317.355 24.939L317.524 23.8723L338.503 27.195L338.334 28.2617Z" fill="black"/>
<g filter="url(#filter4_d_98_350)">
<path d="M315.221 167.795L294.243 164.472L294.581 162.339L315.559 165.662L315.221 167.795ZM315.728 164.595L294.75 161.272L295.257 158.072L316.235 161.395L315.728 164.595ZM316.742 158.195L295.763 154.872L295.932 153.805L316.911 157.128L316.742 158.195ZM317.08 156.058L296.102 152.736L296.44 150.602L317.418 153.925L317.08 156.058ZM317.925 150.725L296.946 147.402L297.115 146.336L318.094 149.658L317.925 150.725ZM318.263 148.592L297.284 145.269L297.453 144.202L318.432 147.525L318.263 148.592ZM318.939 144.322L297.961 140.999L298.13 139.933L319.108 143.255L318.939 144.322ZM319.615 140.055L298.636 136.732L298.974 134.599L319.953 137.922L319.615 140.055ZM320.122 136.855L299.143 133.532L299.312 132.466L320.291 135.788L320.122 136.855ZM320.798 132.585L299.82 129.263L300.157 127.129L321.136 130.452L320.798 132.585ZM321.643 127.252L300.664 123.929L300.833 122.863L321.812 126.185L321.643 127.252ZM321.981 125.118L301.002 121.796L301.509 118.596L322.488 121.918L321.981 125.118ZM322.657 120.849L301.678 117.526L301.847 116.46L322.826 119.782L322.657 120.849ZM323.333 116.582L302.354 113.259L302.692 111.126L323.671 114.449L323.333 116.582ZM323.84 113.382L302.861 110.059L303.03 108.993L324.008 112.315L323.84 113.382ZM324.516 109.112L303.537 105.79L303.706 104.723L324.685 108.046L324.516 109.112ZM324.854 106.979L303.875 103.656L304.213 101.523L325.192 104.846L324.854 106.979ZM325.698 101.645L304.72 98.3228L304.889 97.2561L325.867 100.579L325.698 101.645ZM326.375 97.3759L305.396 94.0532L305.565 92.9865L326.544 96.3092L326.375 97.3759ZM327.05 93.1091L306.072 89.7864L306.241 88.7197L327.219 92.0423L327.05 93.1091ZM327.726 88.8422L306.748 85.5196L307.086 83.3862L328.064 86.7088L327.726 88.8422ZM328.234 85.6394L307.255 82.3167L307.424 81.25L328.402 84.5726L328.234 85.6394ZM328.571 83.5059L307.593 80.1833L307.762 79.1166L328.74 82.4392L328.571 83.5059ZM329.247 79.2391L308.269 75.9165L308.607 73.7831L329.585 77.1057L329.247 79.2391ZM330.092 73.9028L309.114 70.5802L309.452 68.4468L330.43 71.7694L330.092 73.9028ZM330.937 68.5693L309.959 65.2466L310.128 64.1799L331.106 67.5026L330.937 68.5693ZM331.275 66.4359L310.297 63.1132L310.803 59.9131L331.782 63.2358L331.275 66.4359ZM331.951 62.1663L310.973 58.8437L311.48 55.6435L332.458 58.9662L331.951 62.1663ZM332.627 57.8995L311.649 54.5768L312.155 51.3767L333.134 54.6994L332.627 57.8995ZM333.303 53.6327L312.324 50.31L312.662 48.1766L333.641 51.4993L333.303 53.6327ZM333.81 50.4298L312.832 47.1071L313.001 46.0404L333.979 49.3631L333.81 50.4298ZM334.486 46.163L313.507 42.8403L313.845 40.7069L334.824 44.0296L334.486 46.163ZM334.993 42.9629L314.014 39.6402L314.183 38.5735L335.162 41.8962L334.993 42.9629ZM335.669 38.6933L314.691 35.3706L315.028 33.2372L336.007 36.5599L335.669 38.6933ZM336.176 35.4932L315.197 32.1705L315.704 28.9704L336.683 32.2931L336.176 35.4932ZM337.19 29.093L316.211 25.7703L316.38 24.7036L337.359 28.0263L337.19 29.093Z" fill="#A92F2F"/>
</g>
<path d="M313.708 168.036L292.73 164.714L293.068 162.58L314.046 165.903L313.708 168.036ZM314.215 164.836L293.237 161.514L293.744 158.314L314.722 161.636L314.215 164.836ZM315.229 158.436L294.25 155.113L294.419 154.047L315.398 157.369L315.229 158.436ZM315.567 156.3L294.589 152.977L294.927 150.844L315.905 154.166L315.567 156.3ZM316.412 150.966L295.434 147.644L295.603 146.577L316.581 149.9L316.412 150.966ZM316.75 148.833L295.771 145.51L295.94 144.444L316.919 147.766L316.75 148.833ZM317.426 144.563L296.448 141.241L296.617 140.174L317.595 143.497L317.426 144.563ZM318.102 140.297L297.123 136.974L297.461 134.84L318.44 138.163L318.102 140.297ZM318.609 137.096L297.63 133.774L297.799 132.707L318.778 136.03L318.609 137.096ZM319.285 132.827L298.307 129.504L298.644 127.371L319.623 130.693L319.285 132.827ZM320.13 127.493L299.151 124.171L299.32 123.104L320.299 126.427L320.13 127.493ZM320.468 125.36L299.489 122.037L299.996 118.837L320.975 122.16L320.468 125.36ZM321.144 121.09L300.165 117.768L300.334 116.701L321.313 120.024L321.144 121.09ZM321.82 116.824L300.841 113.501L301.179 111.367L322.158 114.69L321.82 116.824ZM322.327 113.623L301.348 110.301L301.517 109.234L322.496 112.557L322.327 113.623ZM323.003 109.354L302.024 106.031L302.193 104.964L323.172 108.287L323.003 109.354ZM323.341 107.22L302.362 103.898L302.7 101.764L323.679 105.087L323.341 107.22ZM324.185 101.887L303.207 98.5642L303.376 97.4975L324.354 100.82L324.185 101.887ZM324.862 97.6173L303.883 94.2947L304.052 93.2279L325.031 96.5506L324.862 97.6173ZM325.538 93.3505L304.559 90.0278L304.728 88.9611L325.706 92.2838L325.538 93.3505ZM326.213 89.0837L305.235 85.761L305.573 83.6276L326.551 86.9503L326.213 89.0837ZM326.721 85.8808L305.742 82.5581L305.911 81.4914L326.89 84.8141L326.721 85.8808ZM327.058 83.7474L306.08 80.4247L306.249 79.358L327.227 82.6807L327.058 83.7474ZM327.734 79.4806L306.756 76.1579L307.094 74.0245L328.072 77.3472L327.734 79.4806ZM328.579 74.1443L307.601 70.8216L307.939 68.6882L328.917 72.0109L328.579 74.1443ZM329.424 68.8108L308.446 65.4881L308.615 64.4214L329.593 67.7441L329.424 68.8108ZM329.762 66.6774L308.784 63.3547L309.29 60.1546L330.269 63.4773L329.762 66.6774ZM330.438 62.4078L309.46 59.0851L309.967 55.885L330.945 59.2077L330.438 62.4078ZM331.114 58.141L310.136 54.8183L310.643 51.6182L331.621 54.9409L331.114 58.141ZM331.79 53.8741L310.811 50.5515L311.149 48.4181L332.128 51.7407L331.79 53.8741ZM332.297 50.6713L311.319 47.3486L311.488 46.2819L332.466 49.6046L332.297 50.6713ZM332.973 46.4044L311.995 43.0818L312.332 40.9484L333.311 44.271L332.973 46.4044ZM333.48 43.2043L312.501 39.8817L312.67 38.815L333.649 42.1376L333.48 43.2043ZM334.156 38.9347L313.178 35.6121L313.516 33.4787L334.494 36.8013L334.156 38.9347ZM334.663 35.7346L313.684 32.412L314.191 29.2119L335.17 32.5345L334.663 35.7346ZM335.677 29.3344L314.698 26.0117L314.867 24.945L335.846 28.2677L335.677 29.3344Z" fill="white"/>
<g filter="url(#filter5_d_98_350)">
<path d="M91.3809 68.3379V57.6504H53.2695V68.3379H67.0371V107.488H77.6133V68.3379H91.3809ZM50.1523 72.7539H48.8906V53.2715H95.7598V54.5332L106.076 64.998V83.1816H92.3086V122.369H74.2734L63.9199 111.904H62.6582V83.1816H60.5059L50.1523 72.7539ZM60.8398 82.3281H63.5488V111.014H64.2539L74.6074 121.479H91.4551V82.3281H105.223V65.2949L94.8691 54.8301V54.125H49.7812V71.8633H50.4863L60.8398 82.3281ZM78.5039 69.2285V108.379H66.1465V69.2285H52.3789V56.7969H92.2715V69.2285H78.5039ZM50.8574 70.9727H50.6348V55.0156H94.0156V55.2383L104.332 65.7031V81.4375H90.6016V120.588H74.9785L64.625 110.123H64.4023V81.4375H61.2109L50.8574 70.9727ZM93.125 70.082V55.9062H51.5254V70.082H65.293V109.27H79.3574V70.082H93.125ZM134.428 82.5137L135.281 81.6973L133.834 80.7695L134.428 82.5137ZM131.348 68.2266C132.51 68.2266 133.599 68.4616 134.613 68.9316C135.628 69.4017 136.518 70.0326 137.285 70.8242C138.052 71.5911 138.646 72.4818 139.066 73.4961C139.512 74.5104 139.734 75.5742 139.734 76.6875C139.734 77.8008 139.512 78.8646 139.066 79.8789C138.646 80.8932 138.052 81.7962 137.285 82.5879C136.518 83.3548 135.628 83.9733 134.613 84.4434C133.599 84.8887 132.51 85.1113 131.348 85.1113H120.809V68.2266H131.348ZM144.113 90.8262C144.212 90.752 144.311 90.6654 144.41 90.5664C144.509 90.4674 144.633 90.3561 144.781 90.2324H144.744C148.455 86.4225 150.311 81.9076 150.311 76.6875C150.311 71.418 148.455 66.903 144.744 63.1426C141.083 59.4069 136.617 57.5391 131.348 57.5391H110.195V107.488H120.809V95.7617H131.088L145.561 109.752C146.204 109.059 146.81 108.416 147.379 107.822C147.973 107.204 148.554 106.598 149.123 106.004C149.717 105.41 150.311 104.804 150.904 104.186C151.523 103.542 152.191 102.85 152.908 102.107C151.399 100.623 149.902 99.1882 148.418 97.8027C146.934 96.3926 145.449 94.9453 143.965 93.4609L144.113 90.8262ZM107.078 111.904H105.816V53.123H131.348C137.755 53.123 143.26 55.4238 147.861 60.0254C148.208 60.3717 148.517 60.7057 148.789 61.0273C149.061 61.3242 149.284 61.5716 149.457 61.7695L149.346 61.6582L158.289 70.7129C162.816 75.2402 165.08 80.7572 165.08 87.2637C165.08 93.1517 163.2 98.2728 159.439 102.627L169.385 112.572L156.211 126.451L139.883 110.68H135.578V122.406H117.469L107.078 111.904ZM117.803 121.516H134.725V109.789H140.254L156.211 125.189L168.197 112.572L158.289 102.664C160.392 100.462 161.901 98.112 162.816 95.6133C163.757 93.1146 164.227 90.3314 164.227 87.2637C164.227 81.0293 162.049 75.7103 157.695 71.3066L148.715 62.252L148.752 62.3262C148.455 61.9551 148.183 61.6458 147.936 61.3984C147.713 61.1263 147.49 60.8789 147.268 60.6562C142.864 56.2279 137.557 54.0137 131.348 54.0137H106.67V111.014H107.375L117.803 121.516ZM144.596 92.8301C146.154 94.3887 147.738 95.9349 149.346 97.4688C150.954 98.9779 152.549 100.512 154.133 102.07C152.624 103.654 151.189 105.163 149.828 106.598C148.492 108.008 147.07 109.48 145.561 111.014L130.717 96.6523H121.662V108.379H109.305V56.6484H131.348C136.79 56.6484 141.466 58.6152 145.375 62.5488C149.259 66.4824 151.201 71.1953 151.201 76.6875C151.201 79.4583 150.706 82.0065 149.717 84.332C148.752 86.6576 147.305 88.8223 145.375 90.8262C145.202 90.9993 145.053 91.1354 144.93 91.2344C144.831 91.3333 144.732 91.4199 144.633 91.4941L144.596 92.8301ZM131.348 69.1172H121.662V84.2207H131.348C132.387 84.2207 133.364 84.0228 134.279 83.627C135.195 83.2064 135.986 82.6497 136.654 81.957C137.322 81.2643 137.854 80.4603 138.25 79.5449C138.646 78.6296 138.844 77.6771 138.844 76.6875C138.844 75.6979 138.646 74.7454 138.25 73.8301C137.854 72.9147 137.322 72.1107 136.654 71.418C135.986 70.7253 135.195 70.1686 134.279 69.748C133.364 69.3275 132.387 69.1172 131.348 69.1172ZM133.834 81.8457C133.982 81.7962 134.118 81.7344 134.242 81.6602C134.366 81.5859 134.502 81.487 134.65 81.3633H133.834V81.8457ZM107.783 110.123H107.561V54.9043H131.348C137.31 54.9043 142.406 57.0319 146.637 61.2871C146.909 61.5592 147.156 61.8314 147.379 62.1035C147.626 62.3509 147.861 62.623 148.084 62.9199L157.064 71.9375C161.245 76.1185 163.336 81.2272 163.336 87.2637C163.336 93.2507 161.245 98.3717 157.064 102.627L157.027 102.664L166.936 112.609L156.174 123.928L140.588 108.898H133.834V120.625H118.174L107.783 110.123ZM131.348 70.0078C132.263 70.0078 133.117 70.1934 133.908 70.5645C134.725 70.9108 135.43 71.4056 136.023 72.0488C136.617 72.6673 137.087 73.3724 137.434 74.1641C137.805 74.9557 137.99 75.7969 137.99 76.6875C137.99 77.5781 137.805 78.4193 137.434 79.2109C137.087 80.0026 136.617 80.7077 136.023 81.3262C135.43 81.9447 134.725 82.4395 133.908 82.8105C133.117 83.1569 132.263 83.3301 131.348 83.3301H122.553V70.0078H131.348ZM145.189 92.1992C145.288 92.125 145.4 92.0384 145.523 91.9395C145.647 91.8158 145.808 91.6549 146.006 91.457C150.038 87.3503 152.055 82.4271 152.055 76.6875C152.055 70.8984 150.038 65.9753 146.006 61.918C141.949 57.8112 137.062 55.7578 131.348 55.7578H108.451V109.27H122.553V97.543H130.383L145.598 112.275L155.357 102.07L145.189 92.1992ZM207.385 94.7227C206.049 95.8359 204.552 96.6771 202.895 97.2461C201.262 97.7904 199.542 98.0625 197.736 98.0625C195.535 98.0625 193.493 97.6543 191.613 96.8379C189.733 96.0215 188.1 94.9082 186.715 93.498C185.354 92.0879 184.278 90.4427 183.486 88.5625C182.719 86.6823 182.336 84.6784 182.336 82.5508C182.336 80.0273 182.806 77.8008 183.746 75.8711C184.711 73.9167 185.936 72.2962 187.42 71.0098C188.904 69.6986 190.549 68.709 192.355 68.041C194.186 67.373 195.98 67.0391 197.736 67.0391C199.443 67.0391 201.101 67.3112 202.709 67.8555C204.317 68.375 205.851 69.2285 207.311 70.416L214.881 62.7715C213.718 61.7572 212.456 60.8542 211.096 60.0625C209.76 59.2461 208.35 58.5658 206.865 58.0215C205.406 57.4525 203.896 57.0319 202.338 56.7598C200.804 56.4629 199.27 56.3145 197.736 56.3145C195.04 56.3145 192.529 56.6732 190.203 57.3906C187.878 58.1081 185.75 59.0977 183.82 60.3594C181.891 61.5964 180.171 63.0684 178.662 64.7754C177.153 66.4577 175.879 68.276 174.84 70.2305C173.826 72.1602 173.046 74.1764 172.502 76.2793C171.958 78.3822 171.686 80.4727 171.686 82.5508C171.686 85.1484 172.02 87.5977 172.688 89.8984C173.355 92.1745 174.283 94.2897 175.471 96.2441C176.683 98.1738 178.105 99.918 179.738 101.477C181.371 103.01 183.152 104.322 185.082 105.41C187.012 106.474 189.053 107.29 191.205 107.859C193.357 108.428 195.535 108.713 197.736 108.713C200.903 108.713 203.958 108.169 206.902 107.08C209.846 105.992 212.506 104.396 214.881 102.293L207.385 94.7227ZM219.854 101.18H219.816L231.469 112.943C229.762 114.65 227.968 116.172 226.088 117.508C224.208 118.844 222.278 119.969 220.299 120.885C218.32 121.775 216.316 122.456 214.287 122.926C212.283 123.396 210.279 123.631 208.275 123.631C206.271 123.631 204.28 123.421 202.301 123C200.346 122.604 198.441 122.023 196.586 121.256C194.755 120.464 192.999 119.512 191.316 118.398C189.634 117.26 188.088 115.962 186.678 114.502C185.193 113.018 183.746 111.57 182.336 110.16C180.926 108.75 179.491 107.303 178.031 105.818C176.448 104.458 175.001 102.936 173.689 101.254C172.378 99.5716 171.24 97.7533 170.275 95.7988C169.335 93.8197 168.605 91.7292 168.086 89.5273C167.566 87.3008 167.307 84.9753 167.307 82.5508C167.307 80.1263 167.616 77.6895 168.234 75.2402C168.878 72.791 169.793 70.4408 170.98 68.1895C172.193 65.9134 173.677 63.7858 175.434 61.8066C177.19 59.8275 179.194 58.1081 181.445 56.6484C183.697 55.1888 186.183 54.0384 188.904 53.1973C191.65 52.3561 194.594 51.9355 197.736 51.9355C199.691 51.9355 201.67 52.1582 203.674 52.6035C205.678 53.0488 207.632 53.6921 209.537 54.5332C211.442 55.3496 213.273 56.3516 215.029 57.5391C216.786 58.7266 218.394 60.0749 219.854 61.584H219.816L231.469 73.3477L217.961 86.9668L216.477 85.5195V85.5566C215.141 84.2702 213.78 83.3424 212.395 82.7734C211.034 82.2044 209.661 81.9199 208.275 81.9199C207.014 81.9199 205.715 82.1673 204.379 82.6621C203.068 83.1322 201.868 83.8372 200.779 84.7773C199.715 85.7174 198.837 86.8926 198.145 88.3027C197.452 89.6882 197.105 91.2962 197.105 93.127C197.105 93.3249 197.093 93.4362 197.068 93.4609C197.068 93.4857 197.068 93.4857 197.068 93.4609C197.068 93.5104 197.081 93.5723 197.105 93.6465C197.254 93.6712 197.365 93.6836 197.439 93.6836C197.514 93.6589 197.613 93.6465 197.736 93.6465C199.221 93.6465 200.779 93.2259 202.412 92.3848C204.045 91.5189 205.69 90.2324 207.348 88.5254L219.854 101.18ZM207.385 89.75C205.851 91.3333 204.255 92.5332 202.598 93.3496C200.965 94.1413 199.344 94.5371 197.736 94.5371C197.514 94.5371 197.266 94.5371 196.994 94.5371C196.747 94.5371 196.499 94.5124 196.252 94.4629V93.127C196.252 91.1478 196.623 89.4036 197.365 87.8945C198.107 86.3854 199.048 85.1237 200.186 84.1094C201.348 83.0951 202.635 82.3281 204.045 81.8086C205.48 81.2891 206.89 81.0293 208.275 81.0293C209.76 81.0293 211.244 81.3385 212.729 81.957C214.238 82.5508 215.697 83.5404 217.107 84.9258H217.07L217.961 85.7422L230.281 73.3477L219.223 62.1777V62.2148C217.788 60.7305 216.217 59.4069 214.51 58.2441C212.827 57.0814 211.059 56.1042 209.203 55.3125C207.348 54.4961 205.443 53.8776 203.488 53.457C201.559 53.0117 199.641 52.7891 197.736 52.7891C194.669 52.7891 191.811 53.1973 189.164 54.0137C186.517 54.8301 184.092 55.9557 181.891 57.3906C179.714 58.8008 177.771 60.4707 176.064 62.4004C174.382 64.3301 172.947 66.3958 171.76 68.5977C170.597 70.7995 169.706 73.0879 169.088 75.4629C168.494 77.8379 168.197 80.2005 168.197 82.5508C168.197 84.9258 168.445 87.1895 168.939 89.3418C169.434 91.4941 170.139 93.5228 171.055 95.4277C171.97 97.3327 173.059 99.1016 174.32 100.734C175.607 102.367 177.029 103.839 178.588 105.15L178.514 105.113C179.973 106.598 181.433 108.07 182.893 109.529C184.352 110.964 185.812 112.424 187.271 113.908C188.632 115.318 190.129 116.568 191.762 117.656C193.395 118.745 195.102 119.673 196.883 120.439C198.689 121.182 200.544 121.751 202.449 122.146C204.379 122.542 206.321 122.74 208.275 122.74C210.23 122.74 212.172 122.53 214.102 122.109C216.056 121.664 217.973 121.033 219.854 120.217C221.734 119.376 223.552 118.349 225.309 117.137C227.065 115.924 228.723 114.527 230.281 112.943L219.223 101.773L207.385 89.75ZM216.105 102.293C213.607 104.668 210.774 106.486 207.607 107.748C204.441 108.985 201.15 109.604 197.736 109.604C195.436 109.604 193.172 109.307 190.945 108.713C188.743 108.119 186.641 107.266 184.637 106.152C182.658 105.039 180.814 103.691 179.107 102.107C177.425 100.499 175.965 98.6934 174.729 96.6895C173.516 94.6855 172.564 92.4961 171.871 90.1211C171.178 87.7461 170.832 85.2227 170.832 82.5508C170.832 80.4232 171.104 78.2708 171.648 76.0938C172.217 73.9167 173.034 71.8262 174.098 69.8223C175.161 67.8184 176.473 65.9505 178.031 64.2188C179.59 62.4622 181.359 60.9408 183.338 59.6543C185.342 58.3431 187.544 57.3164 189.943 56.5742C192.368 55.832 194.965 55.4609 197.736 55.4609C199.394 55.4609 201.051 55.6341 202.709 55.9805C204.367 56.3021 205.987 56.7721 207.57 57.3906C209.154 58.0091 210.663 58.776 212.098 59.6914C213.557 60.6068 214.893 61.6335 216.105 62.7715L207.348 71.5664C205.913 70.3047 204.379 69.377 202.746 68.7832C201.113 68.1895 199.443 67.8926 197.736 67.8926C196.104 67.8926 194.421 68.2142 192.689 68.8574C190.982 69.4759 189.424 70.4036 188.014 71.6406C186.604 72.8776 185.441 74.4115 184.525 76.2422C183.635 78.0729 183.189 80.1758 183.189 82.5508C183.189 84.5547 183.561 86.4473 184.303 88.2285C185.045 90.0098 186.059 91.5684 187.346 92.9043C188.657 94.2155 190.191 95.2669 191.947 96.0586C193.729 96.8255 195.658 97.209 197.736 97.209C199.493 97.209 201.2 96.875 202.857 96.207C204.54 95.5391 206.036 94.6484 207.348 93.5352L216.105 102.293ZM218.666 102.33L218.592 102.404L229.02 112.943C226.15 115.838 222.921 118.052 219.334 119.586C215.747 121.095 212.061 121.85 208.275 121.85C206.37 121.85 204.49 121.664 202.635 121.293C200.804 120.897 199.01 120.34 197.254 119.623C195.522 118.881 193.865 117.978 192.281 116.914C190.698 115.85 189.238 114.638 187.902 113.277L179.145 104.482C177.635 103.196 176.262 101.761 175.025 100.178C173.788 98.5944 172.725 96.8874 171.834 95.0566C170.968 93.2012 170.288 91.2344 169.793 89.1562C169.323 87.0534 169.088 84.8516 169.088 82.5508C169.088 80.2747 169.385 77.9863 169.979 75.6855C170.572 73.36 171.438 71.1335 172.576 69.0059C173.714 66.8535 175.1 64.8496 176.732 62.9941C178.39 61.1387 180.283 59.5182 182.41 58.1328C184.538 56.7474 186.876 55.6589 189.424 54.8672C191.997 54.0755 194.768 53.6797 197.736 53.6797C199.592 53.6797 201.46 53.89 203.34 54.3105C205.22 54.7311 207.051 55.3372 208.832 56.1289C210.638 56.8958 212.37 57.8483 214.027 58.9863C215.71 60.0996 217.256 61.3613 218.666 62.7715L218.592 62.8086L229.02 73.3477L217.961 84.4805L217.701 84.2949C216.192 82.8353 214.633 81.7839 213.025 81.1406C211.442 80.4727 209.859 80.1387 208.275 80.1387C206.816 80.1387 205.319 80.4232 203.785 80.9922C202.251 81.5365 200.854 82.3652 199.592 83.4785C198.355 84.5671 197.34 85.9277 196.549 87.5605C195.757 89.1686 195.361 91.0241 195.361 93.127C195.361 93.498 195.361 93.8568 195.361 94.2031C195.386 94.5495 195.436 94.8958 195.51 95.2422C195.856 95.2917 196.215 95.3411 196.586 95.3906C196.982 95.4154 197.365 95.4277 197.736 95.4277C199.468 95.4277 201.15 95.069 202.783 94.3516C204.441 93.6094 205.975 92.4961 207.385 91.0117L218.666 102.33ZM207.385 92.2734C206.098 93.6341 204.626 94.6484 202.969 95.3164C201.336 95.9844 199.592 96.3184 197.736 96.3184C195.782 96.3184 193.976 95.9596 192.318 95.2422C190.661 94.5 189.214 93.5104 187.977 92.2734C186.764 91.0117 185.812 89.5521 185.119 87.8945C184.426 86.2122 184.08 84.431 184.08 82.5508C184.08 80.3242 184.501 78.3574 185.342 76.6504C186.183 74.9186 187.259 73.4714 188.57 72.3086C189.906 71.1458 191.378 70.2676 192.986 69.6738C194.619 69.0801 196.202 68.7832 197.736 68.7832C199.468 68.7832 201.15 69.1048 202.783 69.748C204.441 70.3665 205.975 71.3932 207.385 72.8281L217.404 62.7715C216.118 61.485 214.708 60.3346 213.174 59.3203C211.64 58.306 210.032 57.4525 208.35 56.7598C206.667 56.0423 204.923 55.498 203.117 55.127C201.311 54.7559 199.518 54.5703 197.736 54.5703C194.867 54.5703 192.182 54.9538 189.684 55.7207C187.21 56.4876 184.946 57.5391 182.893 58.875C180.839 60.2109 178.996 61.7819 177.363 63.5879C175.755 65.3939 174.407 67.3359 173.318 69.4141C172.23 71.4674 171.389 73.6198 170.795 75.8711C170.226 78.1224 169.941 80.349 169.941 82.5508C169.941 85.3216 170.3 87.9316 171.018 90.3809C171.735 92.8301 172.725 95.0938 173.986 97.1719C175.273 99.2253 176.782 101.081 178.514 102.738C180.27 104.371 182.175 105.769 184.229 106.932C186.307 108.094 188.484 108.985 190.76 109.604C193.061 110.197 195.386 110.494 197.736 110.494C199.567 110.494 201.373 110.321 203.154 109.975C204.96 109.604 206.692 109.072 208.35 108.379C210.032 107.686 211.628 106.845 213.137 105.855C214.671 104.841 216.093 103.666 217.404 102.33L207.385 92.2734Z" fill="white"/>
</g>
<path d="M29.8247 39L29 44.5L24 46.5L29 49L29.8247 54.3106L33.5 50.5L38.5 51.5L36 47L38.5 42L33.5 43L29.8247 39Z" fill="black"/>
<g filter="url(#filter6_d_98_350)">
<path d="M30.8247 38L30 43.5L25 45.5L30 48L30.8247 53.3106L34.5 49.5L39.5 50.5L37 46L39.5 41L34.5 42L30.8247 38Z" fill="#A92F2F"/>
</g>
<path d="M31.8247 37L31 42.5L26 44.5L31 47L31.8247 52.3106L35.5 48.5L40.5 49.5L38 45L40.5 40L35.5 41L31.8247 37Z" fill="white"/>
<path d="M29.8247 60.3105L29 65.8105L24 67.8105L29 70.3105L29.8247 75.6211L33.5 71.8105L38.5 72.8105L36 68.3105L38.5 63.3105L33.5 64.3105L29.8247 60.3105Z" fill="black"/>
<g filter="url(#filter7_d_98_350)">
<path d="M30.8247 59.3105L30 64.8105L25 66.8105L30 69.3105L30.8247 74.6211L34.5 70.8105L39.5 71.8105L37 67.3105L39.5 62.3105L34.5 63.3105L30.8247 59.3105Z" fill="#A92F2F"/>
</g>
<path d="M31.8247 58.3105L31 63.8105L26 65.8105L31 68.3105L31.8247 73.6211L35.5 69.8105L40.5 70.8105L38 66.3105L40.5 61.3105L35.5 62.3105L31.8247 58.3105Z" fill="white"/>
<path d="M29.8247 81.6211L29 87.1211L24 89.1211L29 91.6211L29.8247 96.9317L33.5 93.1211L38.5 94.1211L36 89.6211L38.5 84.6211L33.5 85.6211L29.8247 81.6211Z" fill="black"/>
<g filter="url(#filter8_d_98_350)">
<path d="M30.8247 80.6211L30 86.1211L25 88.1211L30 90.6211L30.8247 95.9317L34.5 92.1211L39.5 93.1211L37 88.6211L39.5 83.6211L34.5 84.6211L30.8247 80.6211Z" fill="#A92F2F"/>
</g>
<path d="M31.8247 79.6211L31 85.1211L26 87.1211L31 89.6211L31.8247 94.9317L35.5 91.1211L40.5 92.1211L38 87.6211L40.5 82.6211L35.5 83.6211L31.8247 79.6211Z" fill="white"/>
<path d="M29.8247 102.932L29 108.432L24 110.432L29 112.932L29.8247 118.242L33.5 114.432L38.5 115.432L36 110.932L38.5 105.932L33.5 106.932L29.8247 102.932Z" fill="black"/>
<g filter="url(#filter9_d_98_350)">
<path d="M30.8247 101.932L30 107.432L25 109.432L30 111.932L30.8247 117.242L34.5 113.432L39.5 114.432L37 109.932L39.5 104.932L34.5 105.932L30.8247 101.932Z" fill="#A92F2F"/>
</g>
<path d="M31.8247 100.932L31 106.432L26 108.432L31 110.932L31.8247 116.242L35.5 112.432L40.5 113.432L38 108.932L40.5 103.932L35.5 104.932L31.8247 100.932Z" fill="white"/>
<path d="M29.8247 124.242L29 129.742L24 131.742L29 134.242L29.8247 139.553L33.5 135.742L38.5 136.742L36 132.242L38.5 127.242L33.5 128.242L29.8247 124.242Z" fill="black"/>
<g filter="url(#filter10_d_98_350)">
<path d="M30.8247 123.242L30 128.742L25 130.742L30 133.242L30.8247 138.553L34.5 134.742L39.5 135.742L37 131.242L39.5 126.242L34.5 127.242L30.8247 123.242Z" fill="#A92F2F"/>
</g>
<path d="M31.8247 122.242L31 127.742L26 129.742L31 132.242L31.8247 137.553L35.5 133.742L40.5 134.742L38 130.242L40.5 125.242L35.5 126.242L31.8247 122.242Z" fill="white"/>
<path d="M266.861 22.6536C267.872 22.7958 271.727 22.1646 273.348 20.5358C275.11 18.7639 276.245 16.9038 276.593 14.4281L313.698 19.6429L345.856 24.1623C344.677 32.5524 349.133 36.7408 349.133 36.7408C349.133 36.7408 354.155 41.9908 359.886 42.7962L358.981 49.233C358.981 49.233 357.137 49.4883 355.804 50.3012C354.46 51.1203 353.702 51.9575 353.338 53.489C352.952 55.1121 353.266 56.3235 354.265 57.6587C355.323 59.0719 357.52 59.6308 357.52 59.6308L356.754 65.0773C356.754 65.0773 353.848 65.3703 352.518 66.5016C351.386 67.4648 350.754 68.2863 350.547 69.7589C350.34 71.2315 350.665 72.2344 351.544 73.4334C352.554 74.8118 355.356 75.5783 355.356 75.5783L354.604 80.9323C354.604 80.9323 351.643 81.1981 350.292 82.3459C349.159 83.3084 348.527 84.1306 348.32 85.6032C348.113 87.0758 348.494 88.0397 349.317 89.2778C350.284 90.7317 352.997 91.8145 352.997 91.8145L352.231 97.261C352.231 97.261 349.87 97.073 348.629 97.7646C347.104 98.6143 346.336 99.718 346.093 101.448C345.85 103.177 346.284 104.45 347.516 105.687C348.518 106.694 350.84 107.164 350.84 107.164L350.005 113.105C350.005 113.105 347.168 113.028 345.838 114.034C344.652 114.931 344.141 115.83 343.867 117.292C343.559 118.931 343.791 120.129 344.794 121.461C345.797 122.794 348.543 123.503 348.543 123.503L347.778 128.95C347.778 128.95 344.943 128.875 343.611 129.879C343.047 130.304 342.057 131.175 341.709 132.641C341.338 134.208 341.77 135.454 342.637 136.811C343.634 138.371 346.386 138.852 346.386 138.852L345.551 144.794C345.551 144.794 342.179 144.788 340.82 146.149C339.816 147.154 339.388 148.055 339.344 149.476C339.303 150.785 339.673 151.573 340.41 152.655C341.393 154.098 344.09 155.192 344.09 155.192L342.976 163.114C342.976 163.114 336.05 162.14 330.832 166.961C325.614 171.782 324.918 176.733 324.918 176.733L255.161 166.929C255.161 166.929 255.219 162.898 253.592 160.145C252.769 158.754 250.909 157.542 249.27 156.968C247.664 156.406 246.27 156.468 246.27 156.468" stroke="black" stroke-width="2"/>
<g filter="url(#filter11_d_98_350)">
<path d="M265.861 21.6536C266.872 21.7958 270.727 21.1646 272.348 19.5358C274.11 17.7639 275.245 15.9038 275.593 13.4281L312.698 18.6429L344.856 23.1623C343.677 31.5524 348.133 35.7408 348.133 35.7408C348.133 35.7408 353.155 40.9908 358.886 41.7962L357.981 48.233C357.981 48.233 356.137 48.4883 354.804 49.3012C353.46 50.1203 352.702 50.9575 352.338 52.489C351.952 54.1121 352.266 55.3235 353.265 56.6587C354.323 58.0719 356.52 58.6308 356.52 58.6308L355.754 64.0773C355.754 64.0773 352.848 64.3703 351.518 65.5016C350.386 66.4648 349.754 67.2863 349.547 68.7589C349.34 70.2315 349.665 71.2344 350.544 72.4334C351.554 73.8118 354.356 74.5783 354.356 74.5783L353.604 79.9323C353.604 79.9323 350.643 80.1981 349.292 81.3459C348.159 82.3084 347.527 83.1306 347.32 84.6032C347.113 86.0758 347.494 87.0397 348.317 88.2778C349.284 89.7317 351.997 90.8145 351.997 90.8145L351.231 96.261C351.231 96.261 348.87 96.073 347.629 96.7646C346.104 97.6143 345.336 98.718 345.093 100.448C344.85 102.177 345.284 103.45 346.516 104.687C347.518 105.694 349.84 106.164 349.84 106.164L349.005 112.105C349.005 112.105 346.168 112.028 344.838 113.034C343.652 113.931 343.141 114.83 342.867 116.292C342.559 117.931 342.791 119.129 343.794 120.461C344.797 121.794 347.543 122.503 347.543 122.503L346.778 127.95C346.778 127.95 343.943 127.875 342.611 128.879C342.047 129.304 341.057 130.175 340.709 131.641C340.338 133.208 340.77 134.454 341.637 135.811C342.634 137.371 345.386 137.852 345.386 137.852L344.551 143.794C344.551 143.794 341.179 143.788 339.82 145.149C338.816 146.154 338.388 147.055 338.344 148.476C338.303 149.785 338.673 150.573 339.41 151.655C340.393 153.098 343.09 154.192 343.09 154.192L341.976 162.114C341.976 162.114 335.05 161.14 329.832 165.961C324.614 170.782 323.918 175.733 323.918 175.733L254.161 165.929C254.161 165.929 254.219 161.898 252.592 159.145C251.769 157.754 249.909 156.542 248.27 155.968C246.664 155.406 245.27 155.468 245.27 155.468" stroke="#A92F2F" stroke-width="2"/>
</g>
<path d="M266.845 22.9194L268.824 23.2135L270.087 24.9178L269.204 30.8525L267.5 32.1157L265.522 31.8215" stroke="black" stroke-width="1.5"/>
<g filter="url(#filter12_d_98_350)">
<path d="M266.003 21.7832L267.982 22.0773L269.245 23.7815L268.362 29.7163L266.658 30.9794L264.68 30.6853" stroke="#A92F2F" stroke-width="1.5"/>
</g>
<path d="M265.161 20.6469L267.14 20.941L268.403 22.6453L267.52 28.5801L265.816 29.8432L263.838 29.5491" stroke="white" stroke-width="1.5"/>
<path d="M265.375 32.8107L267.353 33.1049L268.616 34.8091L267.734 40.7439L266.029 42.007L264.051 41.7129" stroke="black" stroke-width="1.5"/>
<g filter="url(#filter13_d_98_350)">
<path d="M264.533 31.6745L266.511 31.9686L267.774 33.6729L266.892 39.6077L265.187 40.8708L263.209 40.5767" stroke="#A92F2F" stroke-width="1.5"/>
</g>
<path d="M263.691 30.5383L265.669 30.8324L266.932 32.5367L266.05 38.4714L264.345 39.7345L262.367 39.4404" stroke="white" stroke-width="1.5"/>
<path d="M263.904 42.7021L265.883 42.9962L267.146 44.7005L266.263 50.6353L264.559 51.8984L262.581 51.6043" stroke="black" stroke-width="1.5"/>
<g filter="url(#filter14_d_98_350)">
<path d="M263.062 41.5659L265.04 41.86L266.304 43.5643L265.421 49.499L263.717 50.7621L261.739 50.468" stroke="#A92F2F" stroke-width="1.5"/>
</g>
<path d="M262.22 40.4296L264.198 40.7238L265.462 42.428L264.579 48.3628L262.875 49.6259L260.897 49.3318" stroke="white" stroke-width="1.5"/>
<path d="M262.434 52.5935L264.412 52.8876L265.675 54.5918L264.793 60.5266L263.088 61.7897L261.11 61.4956" stroke="black" stroke-width="1.5"/>
<g filter="url(#filter15_d_98_350)">
<path d="M261.592 51.4572L263.57 51.7513L264.833 53.4556L263.951 59.3904L262.246 60.6535L260.268 60.3594" stroke="#A92F2F" stroke-width="1.5"/>
</g>
<path d="M260.749 50.321L262.728 50.6151L263.991 52.3194L263.109 58.2542L261.404 59.5173L259.426 59.2232" stroke="white" stroke-width="1.5"/>
<path d="M260.963 62.4846L262.941 62.7787L264.204 64.483L263.322 70.4177L261.618 71.6808L259.64 71.3867" stroke="black" stroke-width="1.5"/>
<g filter="url(#filter16_d_98_350)">
<path d="M260.121 61.3483L262.099 61.6425L263.362 63.3467L262.48 69.2815L260.776 70.5446L258.798 70.2505" stroke="#A92F2F" stroke-width="1.5"/>
</g>
<path d="M259.279 60.2121L261.257 60.5062L262.52 62.2105L261.638 68.1453L259.934 69.4084L257.956 69.1143" stroke="white" stroke-width="1.5"/>
<path d="M259.492 72.3759L261.471 72.67L262.734 74.3743L261.851 80.3091L260.147 81.5722L258.169 81.2781" stroke="black" stroke-width="1.5"/>
<g filter="url(#filter17_d_98_350)">
<path d="M258.65 71.2397L260.629 71.5338L261.892 73.2381L261.009 79.1729L259.305 80.436L257.327 80.1419" stroke="#A92F2F" stroke-width="1.5"/>
</g>
<path d="M257.808 70.1035L259.787 70.3976L261.05 72.1019L260.167 78.0366L258.463 79.2997L256.485 79.0056" stroke="white" stroke-width="1.5"/>
<path d="M258.022 82.2673L260 82.5614L261.263 84.2657L260.381 90.2004L258.677 91.4636L256.698 91.1694" stroke="black" stroke-width="1.5"/>
<g filter="url(#filter18_d_98_350)">
<path d="M257.18 81.1311L259.158 81.4252L260.421 83.1294L259.539 89.0642L257.835 90.3273L255.856 90.0332" stroke="#A92F2F" stroke-width="1.5"/>
</g>
<path d="M256.338 79.9948L258.316 80.2889L259.579 81.9932L258.697 87.928L256.993 89.1911L255.014 88.897" stroke="white" stroke-width="1.5"/>
<path d="M256.551 92.1584L258.53 92.4525L259.793 94.1568L258.911 100.092L257.206 101.355L255.228 101.061" stroke="black" stroke-width="1.5"/>
<g filter="url(#filter19_d_98_350)">
<path d="M255.709 91.0222L257.688 91.3163L258.951 93.0206L258.068 98.9553L256.364 100.218L254.386 99.9243" stroke="#A92F2F" stroke-width="1.5"/>
</g>
<path d="M254.867 89.8859L256.846 90.1801L258.109 91.8843L257.226 97.8191L255.522 99.0822L253.544 98.7881" stroke="white" stroke-width="1.5"/>
<path d="M255.081 102.05L257.059 102.344L258.322 104.048L257.44 109.983L255.736 111.246L253.757 110.952" stroke="black" stroke-width="1.5"/>
<g filter="url(#filter20_d_98_350)">
<path d="M254.239 100.914L256.217 101.208L257.48 102.912L256.598 108.847L254.893 110.11L252.915 109.816" stroke="#A92F2F" stroke-width="1.5"/>
</g>
<path d="M253.397 99.7773L255.375 100.071L256.638 101.776L255.756 107.71L254.051 108.974L252.073 108.679" stroke="white" stroke-width="1.5"/>
<path d="M253.61 111.941L255.589 112.235L256.852 113.94L255.969 119.874L254.265 121.137L252.287 120.843" stroke="black" stroke-width="1.5"/>
<g filter="url(#filter21_d_98_350)">
<path d="M252.768 110.805L254.747 111.099L256.01 112.803L255.127 118.738L253.423 120.001L251.445 119.707" stroke="#A92F2F" stroke-width="1.5"/>
</g>
<path d="M251.926 109.669L253.904 109.963L255.168 111.667L254.285 117.602L252.581 118.865L250.603 118.571" stroke="white" stroke-width="1.5"/>
<path d="M252.14 121.832L254.118 122.126L255.381 123.831L254.499 129.765L252.794 131.028L250.816 130.734" stroke="black" stroke-width="1.5"/>
<g filter="url(#filter22_d_98_350)">
<path d="M251.298 120.696L253.276 120.99L254.539 122.694L253.657 128.629L251.952 129.892L249.974 129.598" stroke="#A92F2F" stroke-width="1.5"/>
</g>
<path d="M250.456 119.56L252.434 119.854L253.697 121.558L252.815 127.493L251.11 128.756L249.132 128.462" stroke="white" stroke-width="1.5"/>
<path d="M250.669 131.724L252.647 132.018L253.911 133.722L253.028 139.657L251.324 140.92L249.346 140.626" stroke="black" stroke-width="1.5"/>
<g filter="url(#filter23_d_98_350)">
<path d="M249.827 130.587L251.805 130.881L253.068 132.586L252.186 138.521L250.482 139.784L248.504 139.49" stroke="#A92F2F" stroke-width="1.5"/>
</g>
<path d="M248.985 129.451L250.963 129.745L252.226 131.45L251.344 137.384L249.64 138.647L247.662 138.353" stroke="white" stroke-width="1.5"/>
<path d="M249.199 141.615L251.177 141.909L252.44 143.613L251.558 149.548L249.853 150.811L247.875 150.517" stroke="black" stroke-width="1.5"/>
<g filter="url(#filter24_d_98_350)">
<path d="M248.357 140.479L250.335 140.773L251.598 142.477L250.716 148.412L249.011 149.675L247.033 149.381" stroke="#A92F2F" stroke-width="1.5"/>
</g>
<path d="M247.515 139.342L249.493 139.637L250.756 141.341L249.874 147.276L248.169 148.539L246.191 148.245" stroke="white" stroke-width="1.5"/>
<path d="M247.793 151.067L249.772 151.361L251.133 152.406L250.643 155.703L249.036 156.306L247.058 156.012" stroke="black" stroke-width="1.5"/>
<g filter="url(#filter25_d_98_350)">
<path d="M246.886 150.37L248.864 150.664L250.225 151.709L249.735 155.006L248.129 155.61L246.151 155.315" stroke="#A92F2F" stroke-width="1.5"/>
</g>
<path d="M245.978 149.673L247.957 149.967L249.318 151.012L248.828 154.309L247.221 154.913L245.243 154.619" stroke="white" stroke-width="1.5"/>
<path d="M264.86 20.6541C265.872 20.7963 269.727 20.1651 271.347 18.5363C273.11 16.7644 274.245 14.9043 274.593 12.4286L311.698 17.6434L343.855 22.1628C342.676 30.5529 347.133 34.7413 347.133 34.7413C347.133 34.7413 352.155 39.9913 357.885 40.7967L356.981 47.2335C356.981 47.2335 355.137 47.4888 353.803 48.3017C352.46 49.1208 351.701 49.9579 351.337 51.4895C350.952 53.1126 351.266 54.324 352.265 55.6592C353.322 57.0724 355.519 57.6313 355.519 57.6313L354.754 63.0778C354.754 63.0778 351.847 63.3708 350.518 64.5021C349.385 65.4653 348.753 66.2868 348.546 67.7594C348.339 69.232 348.665 70.2349 349.543 71.4339C350.553 72.8123 353.356 73.5788 353.356 73.5788L352.603 78.9328C352.603 78.9328 349.642 79.1986 348.291 80.3464C347.158 81.3089 346.527 82.1311 346.32 83.6037C346.113 85.0763 346.494 86.0402 347.317 87.2782C348.283 88.7322 350.996 89.815 350.996 89.815L350.231 95.2615C350.231 95.2615 347.87 95.0734 346.628 95.765C345.104 96.6148 344.336 97.7185 344.093 99.448C343.85 101.177 344.284 102.45 345.515 103.687C346.518 104.694 348.839 105.164 348.839 105.164L348.004 111.106C348.004 111.106 345.167 111.029 343.837 112.035C342.652 112.932 342.141 113.831 341.866 115.292C341.558 116.932 341.791 118.13 342.794 119.462C343.797 120.794 346.543 121.504 346.543 121.504L345.777 126.95C345.777 126.95 342.942 126.875 341.611 127.879C341.046 128.305 340.057 129.176 339.709 130.641C339.337 132.208 339.77 133.455 340.636 134.811C341.633 136.372 344.386 136.853 344.386 136.853L343.551 142.794C343.551 142.794 340.178 142.789 338.82 144.149C337.815 145.155 337.387 146.055 337.343 147.476C337.302 148.785 337.673 149.573 338.41 150.655C339.392 152.098 342.089 153.192 342.089 153.192L340.976 161.114C340.976 161.114 334.049 160.141 328.831 164.962C323.613 169.782 322.917 174.734 322.917 174.734L253.16 164.93C253.16 164.93 253.219 160.899 251.591 158.145C250.769 156.755 248.909 155.542 247.269 154.968C245.663 154.406 244.269 154.468 244.269 154.468" stroke="white" stroke-width="2"/>
<path d="M242.5 22.5C241.5 22.5 238 22.5 235.5 20.5C233.345 18.5419 232.564 15.6251 232.5 13H28.0497C28.0497 21.4452 22.5336 25.4194 22.5336 25.4194C22.5336 25.4194 18.0205 28.8968 11.5015 29.3936C11.5015 31.6528 11.5 34.0282 11.4971 36.5C11.5 36.5 16.5 36.5764 16.5 41.2882C16.5 46 11.5 46.5 11.5 46.5V52C11.5 52 16.5 52.5 16.5 57.5C16.5 62.5 11.4816 62.5 11.4816 62.5L11.4083 68.2057C11.4083 68.2057 16.5 69 16.5 73.5C16.5 78 11.5 78.5 11.5 78.5V84C11.5 84 16.5 84.3246 16.5 89C16.5 93.6754 11.3575 94.5 11.3575 94.5C11.3575 94.5 11.3365 97.0567 11.3093 100.5C11.3093 100.5 16.5 101 16.5 105.5C16.5 110 11.2317 110.706 11.2317 110.706C11.2151 113.013 11.2013 115.08 11.1938 116.5C11.1938 116.5 16.5 116.5 16.5 121.5C16.5 126.5 11.1385 126.738 11.1385 126.738C11.1273 128.758 11.1165 130.683 11.1062 132.5C11.1062 132.5 16.5 132.5 16.5 137.5C16.5 142.5 11.0468 142.761 11.0468 142.761C11.0179 147.655 11 150.5 11 150.5C11 150.5 18.5 150.11 23 155.5C27.5 160.89 27.5482 167 27.5482 167L232.5 167.5C232.5 167.5 232 164 234.5 160.5C237 157 243 157.5 243 157.5" stroke="black" stroke-width="2"/>
<g filter="url(#filter26_d_98_350)">
<path d="M243.5 21.5C242.5 21.5 239 21.5 236.5 19.5C234.345 17.5419 233.564 14.6251 233.5 12H29.0497C29.0497 20.4452 23.5336 24.4194 23.5336 24.4194C23.5336 24.4194 19.0205 27.8968 12.5015 28.3936C12.5015 30.6528 12.5 33.0282 12.4971 35.5C12.5 35.5 17.5 35.5764 17.5 40.2882C17.5 45 12.5 45.5 12.5 45.5V51C12.5 51 17.5 51.5 17.5 56.5C17.5 61.5 12.4816 61.5 12.4816 61.5L12.4083 67.2057C12.4083 67.2057 17.5 68 17.5 72.5C17.5 77 12.5 77.5 12.5 77.5V83C12.5 83 17.5 83.3246 17.5 88C17.5 92.6754 12.3575 93.5 12.3575 93.5C12.3575 93.5 12.3365 96.0567 12.3093 99.5C12.3093 99.5 17.5 100 17.5 104.5C17.5 109 12.2317 109.706 12.2317 109.706C12.2151 112.013 12.2013 114.08 12.1938 115.5C12.1938 115.5 17.5 115.5 17.5 120.5C17.5 125.5 12.1385 125.738 12.1385 125.738C12.1273 127.758 12.1165 129.683 12.1062 131.5C12.1062 131.5 17.5 131.5 17.5 136.5C17.5 141.5 12.0468 141.761 12.0468 141.761C12.0179 146.655 12 149.5 12 149.5C12 149.5 19.5 149.11 24 154.5C28.5 159.89 28.5482 166 28.5482 166L233.5 166.5C233.5 166.5 233 163 235.5 159.5C238 156 244 156.5 244 156.5" stroke="#A92F2F" stroke-width="2"/>
</g>
<path d="M242.5 21.5H240.5L239 23V29L240.5 30.5H242.5" stroke="black" stroke-width="1.5"/>
<g filter="url(#filter27_d_98_350)">
<path d="M243.5 20.5H241.5L240 22V28L241.5 29.5H243.5" stroke="#A92F2F" stroke-width="1.5"/>
</g>
<path d="M244.5 19.5H242.5L241 21V27L242.5 28.5H244.5" stroke="white" stroke-width="1.5"/>
<path d="M242.5 31.5H240.5L239 33V39L240.5 40.5H242.5" stroke="black" stroke-width="1.5"/>
<g filter="url(#filter28_d_98_350)">
<path d="M243.5 30.5H241.5L240 32V38L241.5 39.5H243.5" stroke="#A92F2F" stroke-width="1.5"/>
</g>
<path d="M244.5 29.5H242.5L241 31V37L242.5 38.5H244.5" stroke="white" stroke-width="1.5"/>
<path d="M242.5 41.5H240.5L239 43V49L240.5 50.5H242.5" stroke="black" stroke-width="1.5"/>
<g filter="url(#filter29_d_98_350)">
<path d="M243.5 40.5H241.5L240 42V48L241.5 49.5H243.5" stroke="#A92F2F" stroke-width="1.5"/>
</g>
<path d="M244.5 39.5H242.5L241 41V47L242.5 48.5H244.5" stroke="white" stroke-width="1.5"/>
<path d="M242.5 51.5H240.5L239 53V59L240.5 60.5H242.5" stroke="black" stroke-width="1.5"/>
<g filter="url(#filter30_d_98_350)">
<path d="M243.5 50.5H241.5L240 52V58L241.5 59.5H243.5" stroke="#A92F2F" stroke-width="1.5"/>
</g>
<path d="M244.5 49.5H242.5L241 51V57L242.5 58.5H244.5" stroke="white" stroke-width="1.5"/>
<path d="M242.5 61.5H240.5L239 63V69L240.5 70.5H242.5" stroke="black" stroke-width="1.5"/>
<g filter="url(#filter31_d_98_350)">
<path d="M243.5 60.5H241.5L240 62V68L241.5 69.5H243.5" stroke="#A92F2F" stroke-width="1.5"/>
</g>
<path d="M244.5 59.5H242.5L241 61V67L242.5 68.5H244.5" stroke="white" stroke-width="1.5"/>
<path d="M242.5 71.5H240.5L239 73V79L240.5 80.5H242.5" stroke="black" stroke-width="1.5"/>
<g filter="url(#filter32_d_98_350)">
<path d="M243.5 70.5H241.5L240 72V78L241.5 79.5H243.5" stroke="#A92F2F" stroke-width="1.5"/>
</g>
<path d="M244.5 69.5H242.5L241 71V77L242.5 78.5H244.5" stroke="white" stroke-width="1.5"/>
<path d="M242.5 81.5H240.5L239 83V89L240.5 90.5H242.5" stroke="black" stroke-width="1.5"/>
<g filter="url(#filter33_d_98_350)">
<path d="M243.5 80.5H241.5L240 82V88L241.5 89.5H243.5" stroke="#A92F2F" stroke-width="1.5"/>
</g>
<path d="M244.5 79.5H242.5L241 81V87L242.5 88.5H244.5" stroke="white" stroke-width="1.5"/>
<path d="M242.5 91.5H240.5L239 93V99L240.5 100.5H242.5" stroke="black" stroke-width="1.5"/>
<g filter="url(#filter34_d_98_350)">
<path d="M243.5 90.5H241.5L240 92V98L241.5 99.5H243.5" stroke="#A92F2F" stroke-width="1.5"/>
</g>
<path d="M244.5 89.5H242.5L241 91V97L242.5 98.5H244.5" stroke="white" stroke-width="1.5"/>
<path d="M242.5 101.5H240.5L239 103V109L240.5 110.5H242.5" stroke="black" stroke-width="1.5"/>
<g filter="url(#filter35_d_98_350)">
<path d="M243.5 100.5H241.5L240 102V108L241.5 109.5H243.5" stroke="#A92F2F" stroke-width="1.5"/>
</g>
<path d="M244.5 99.5H242.5L241 101V107L242.5 108.5H244.5" stroke="white" stroke-width="1.5"/>
<path d="M242.5 111.5H240.5L239 113V119L240.5 120.5H242.5" stroke="black" stroke-width="1.5"/>
<g filter="url(#filter36_d_98_350)">
<path d="M243.5 110.5H241.5L240 112V118L241.5 119.5H243.5" stroke="#A92F2F" stroke-width="1.5"/>
</g>
<path d="M244.5 109.5H242.5L241 111V117L242.5 118.5H244.5" stroke="white" stroke-width="1.5"/>
<path d="M242.5 121.5H240.5L239 123V129L240.5 130.5H242.5" stroke="black" stroke-width="1.5"/>
<g filter="url(#filter37_d_98_350)">
<path d="M243.5 120.5H241.5L240 122V128L241.5 129.5H243.5" stroke="#A92F2F" stroke-width="1.5"/>
</g>
<path d="M244.5 119.5H242.5L241 121V127L242.5 128.5H244.5" stroke="white" stroke-width="1.5"/>
<path d="M242.5 131.5H240.5L239 133V139L240.5 140.5H242.5" stroke="black" stroke-width="1.5"/>
<g filter="url(#filter38_d_98_350)">
<path d="M243.5 130.5H241.5L240 132V138L241.5 139.5H243.5" stroke="#A92F2F" stroke-width="1.5"/>
</g>
<path d="M244.5 129.5H242.5L241 131V137L242.5 138.5H244.5" stroke="white" stroke-width="1.5"/>
<path d="M242.5 141.5H240.5L239 143V149L240.5 150.5H242.5" stroke="black" stroke-width="1.5"/>
<g filter="url(#filter39_d_98_350)">
<path d="M243.5 140.5H241.5L240 142V148L241.5 149.5H243.5" stroke="#A92F2F" stroke-width="1.5"/>
</g>
<path d="M244.5 139.5H242.5L241 141V147L242.5 148.5H244.5" stroke="white" stroke-width="1.5"/>
<path d="M242.5 151.055H240.5L239 151.889V155.222L240.5 156.055H242.5" stroke="black" stroke-width="1.5"/>
<g filter="url(#filter40_d_98_350)">
<path d="M243.5 150.5H241.5L240 151.333V154.667L241.5 155.5H243.5" stroke="#A92F2F" stroke-width="1.5"/>
</g>
<path d="M244.5 149.944H242.5L241 150.778V154.111L242.5 154.944H244.5" stroke="white" stroke-width="1.5"/>
<path d="M244.5 20.5C243.5 20.5 240 20.5 237.5 18.5C235.345 16.5419 234.564 13.6251 234.5 11H30.0497C30.0497 19.4452 24.5336 23.4194 24.5336 23.4194C24.5336 23.4194 20.0205 26.8968 13.5015 27.3936C13.5015 29.6528 13.5 32.0282 13.4971 34.5C13.5 34.5 18.5 34.5764 18.5 39.2882C18.5 44 13.5 44.5 13.5 44.5V50C13.5 50 18.5 50.5 18.5 55.5C18.5 60.5 13.4816 60.5 13.4816 60.5L13.4083 66.2057C13.4083 66.2057 18.5 67 18.5 71.5C18.5 76 13.5 76.5 13.5 76.5V82C13.5 82 18.5 82.3246 18.5 87C18.5 91.6754 13.3575 92.5 13.3575 92.5C13.3575 92.5 13.3365 95.0567 13.3093 98.5C13.3093 98.5 18.5 99 18.5 103.5C18.5 108 13.2317 108.706 13.2317 108.706C13.2151 111.013 13.2013 113.08 13.1938 114.5C13.1938 114.5 18.5 114.5 18.5 119.5C18.5 124.5 13.1385 124.738 13.1385 124.738C13.1273 126.758 13.1165 128.683 13.1062 130.5C13.1062 130.5 18.5 130.5 18.5 135.5C18.5 140.5 13.0468 140.761 13.0468 140.761C13.0179 145.655 13 148.5 13 148.5C13 148.5 20.5 148.11 25 153.5C29.5 158.89 29.5482 165 29.5482 165L234.5 165.5C234.5 165.5 234 162 236.5 158.5C239 155 245 155.5 245 155.5" stroke="white" stroke-width="2"/>
<defs>
<filter id="filter0_d_98_350" x="270.84" y="21.2326" width="37.769" height="37.2055" filterUnits="userSpaceOnUse" color-interpolation-filters="sRGB">
<feFlood flood-opacity="0" result="BackgroundImageFix"/>
<feColorMatrix in="SourceAlpha" type="matrix" values="0 0 0 0 0 0 0 0 0 0 0 0 0 0 0 0 0 0 127 0" result="hardAlpha"/>
<feOffset dx="-1" dy="-1"/>
<feGaussianBlur stdDeviation="4.7"/>
<feComposite in2="hardAlpha" operator="out"/>
<feColorMatrix type="matrix" values="0 0 0 0 0.662745 0 0 0 0 0.184314 0 0 0 0 0.184314 0 0 0 1 0"/>
<feBlend mode="normal" in2="BackgroundImageFix" result="effect1_dropShadow_98_350"/>
<feBlend mode="normal" in="SourceGraphic" in2="effect1_dropShadow_98_350" result="shape"/>
</filter>
<filter id="filter1_d_98_350" x="263.365" y="67.203" width="39.0725" height="44.5859" filterUnits="userSpaceOnUse" color-interpolation-filters="sRGB">
<feFlood flood-opacity="0" result="BackgroundImageFix"/>
<feColorMatrix in="SourceAlpha" type="matrix" values="0 0 0 0 0 0 0 0 0 0 0 0 0 0 0 0 0 0 127 0" result="hardAlpha"/>
<feOffset dx="-1" dy="-1"/>
<feGaussianBlur stdDeviation="4.7"/>
<feComposite in2="hardAlpha" operator="out"/>
<feColorMatrix type="matrix" values="0 0 0 0 0.662745 0 0 0 0 0.184314 0 0 0 0 0.184314 0 0 0 1 0"/>
<feBlend mode="normal" in2="BackgroundImageFix" result="effect1_dropShadow_98_350"/>
<feBlend mode="normal" in="SourceGraphic" in2="effect1_dropShadow_98_350" result="shape"/>
</filter>
<filter id="filter2_d_98_350" x="255.1" y="119.506" width="38.5974" height="37.6452" filterUnits="userSpaceOnUse" color-interpolation-filters="sRGB">
<feFlood flood-opacity="0" result="BackgroundImageFix"/>
<feColorMatrix in="SourceAlpha" type="matrix" values="0 0 0 0 0 0 0 0 0 0 0 0 0 0 0 0 0 0 127 0" result="hardAlpha"/>
<feOffset dx="-1" dy="-1"/>
<feGaussianBlur stdDeviation="4.7"/>
<feComposite in2="hardAlpha" operator="out"/>
<feColorMatrix type="matrix" values="0 0 0 0 0.662745 0 0 0 0 0.184314 0 0 0 0 0.184314 0 0 0 1 0"/>
<feBlend mode="normal" in2="BackgroundImageFix" result="effect1_dropShadow_98_350"/>
<feBlend mode="normal" in="SourceGraphic" in2="effect1_dropShadow_98_350" result="shape"/>
</filter>
<filter id="filter3_d_98_350" x="255.1" y="119.506" width="38.5974" height="37.6452" filterUnits="userSpaceOnUse" color-interpolation-filters="sRGB">
<feFlood flood-opacity="0" result="BackgroundImageFix"/>
<feColorMatrix in="SourceAlpha" type="matrix" values="0 0 0 0 0 0 0 0 0 0 0 0 0 0 0 0 0 0 127 0" result="hardAlpha"/>
<feOffset dx="-1" dy="-1"/>
<feGaussianBlur stdDeviation="4.7"/>
<feComposite in2="hardAlpha" operator="out"/>
<feColorMatrix type="matrix" values="0 0 0 0 0.662745 0 0 0 0 0.184314 0 0 0 0 0.184314 0 0 0 1 0"/>
<feBlend mode="normal" in2="BackgroundImageFix" result="effect1_dropShadow_98_350"/>
<feBlend mode="normal" in="SourceGraphic" in2="effect1_dropShadow_98_350" result="shape"/>
</filter>
<filter id="filter4_d_98_350" x="283.843" y="14.3036" width="61.9157" height="161.891" filterUnits="userSpaceOnUse" color-interpolation-filters="sRGB">
<feFlood flood-opacity="0" result="BackgroundImageFix"/>
<feColorMatrix in="SourceAlpha" type="matrix" values="0 0 0 0 0 0 0 0 0 0 0 0 0 0 0 0 0 0 127 0" result="hardAlpha"/>
<feOffset dx="-1" dy="-1"/>
<feGaussianBlur stdDeviation="4.7"/>
<feComposite in2="hardAlpha" operator="out"/>
<feColorMatrix type="matrix" values="0 0 0 0 0.662745 0 0 0 0 0.184314 0 0 0 0 0.184314 0 0 0 1 0"/>
<feBlend mode="normal" in2="BackgroundImageFix" result="effect1_dropShadow_98_350"/>
<feBlend mode="normal" in="SourceGraphic" in2="effect1_dropShadow_98_350" result="shape"/>
</filter>
<filter id="filter5_d_98_350" x="36.0906" y="39.1355" width="208.178" height="100.116" filterUnits="userSpaceOnUse" color-interpolation-filters="sRGB">
<feFlood flood-opacity="0" result="BackgroundImageFix"/>
<feColorMatrix in="SourceAlpha" type="matrix" values="0 0 0 0 0 0 0 0 0 0 0 0 0 0 0 0 0 0 127 0" result="hardAlpha"/>
<feOffset/>
<feGaussianBlur stdDeviation="6.4"/>
<feComposite in2="hardAlpha" operator="out"/>
<feColorMatrix type="matrix" values="0 0 0 0 0.662745 0 0 0 0 0.184314 0 0 0 0 0.184314 0 0 0 1 0"/>
<feBlend mode="normal" in2="BackgroundImageFix" result="effect1_dropShadow_98_350"/>
<feBlend mode="normal" in="SourceGraphic" in2="effect1_dropShadow_98_350" result="shape"/>
</filter>
<filter id="filter6_d_98_350" x="14.6" y="27.6" width="33.3" height="34.1105" filterUnits="userSpaceOnUse" color-interpolation-filters="sRGB">
<feFlood flood-opacity="0" result="BackgroundImageFix"/>
<feColorMatrix in="SourceAlpha" type="matrix" values="0 0 0 0 0 0 0 0 0 0 0 0 0 0 0 0 0 0 127 0" result="hardAlpha"/>
<feOffset dx="-1" dy="-1"/>
<feGaussianBlur stdDeviation="4.7"/>
<feComposite in2="hardAlpha" operator="out"/>
<feColorMatrix type="matrix" values="0 0 0 0 0.662745 0 0 0 0 0.184314 0 0 0 0 0.184314 0 0 0 1 0"/>
<feBlend mode="normal" in2="BackgroundImageFix" result="effect1_dropShadow_98_350"/>
<feBlend mode="normal" in="SourceGraphic" in2="effect1_dropShadow_98_350" result="shape"/>
</filter>
<filter id="filter7_d_98_350" x="14.6" y="48.9105" width="33.3" height="34.1105" filterUnits="userSpaceOnUse" color-interpolation-filters="sRGB">
<feFlood flood-opacity="0" result="BackgroundImageFix"/>
<feColorMatrix in="SourceAlpha" type="matrix" values="0 0 0 0 0 0 0 0 0 0 0 0 0 0 0 0 0 0 127 0" result="hardAlpha"/>
<feOffset dx="-1" dy="-1"/>
<feGaussianBlur stdDeviation="4.7"/>
<feComposite in2="hardAlpha" operator="out"/>
<feColorMatrix type="matrix" values="0 0 0 0 0.662745 0 0 0 0 0.184314 0 0 0 0 0.184314 0 0 0 1 0"/>
<feBlend mode="normal" in2="BackgroundImageFix" result="effect1_dropShadow_98_350"/>
<feBlend mode="normal" in="SourceGraphic" in2="effect1_dropShadow_98_350" result="shape"/>
</filter>
<filter id="filter8_d_98_350" x="14.6" y="70.2211" width="33.3" height="34.1105" filterUnits="userSpaceOnUse" color-interpolation-filters="sRGB">
<feFlood flood-opacity="0" result="BackgroundImageFix"/>
<feColorMatrix in="SourceAlpha" type="matrix" values="0 0 0 0 0 0 0 0 0 0 0 0 0 0 0 0 0 0 127 0" result="hardAlpha"/>
<feOffset dx="-1" dy="-1"/>
<feGaussianBlur stdDeviation="4.7"/>
<feComposite in2="hardAlpha" operator="out"/>
<feColorMatrix type="matrix" values="0 0 0 0 0.662745 0 0 0 0 0.184314 0 0 0 0 0.184314 0 0 0 1 0"/>
<feBlend mode="normal" in2="BackgroundImageFix" result="effect1_dropShadow_98_350"/>
<feBlend mode="normal" in="SourceGraphic" in2="effect1_dropShadow_98_350" result="shape"/>
</filter>
<filter id="filter9_d_98_350" x="14.6" y="91.5316" width="33.3" height="34.1105" filterUnits="userSpaceOnUse" color-interpolation-filters="sRGB">
<feFlood flood-opacity="0" result="BackgroundImageFix"/>
<feColorMatrix in="SourceAlpha" type="matrix" values="0 0 0 0 0 0 0 0 0 0 0 0 0 0 0 0 0 0 127 0" result="hardAlpha"/>
<feOffset dx="-1" dy="-1"/>
<feGaussianBlur stdDeviation="4.7"/>
<feComposite in2="hardAlpha" operator="out"/>
<feColorMatrix type="matrix" values="0 0 0 0 0.662745 0 0 0 0 0.184314 0 0 0 0 0.184314 0 0 0 1 0"/>
<feBlend mode="normal" in2="BackgroundImageFix" result="effect1_dropShadow_98_350"/>
<feBlend mode="normal" in="SourceGraphic" in2="effect1_dropShadow_98_350" result="shape"/>
</filter>
<filter id="filter10_d_98_350" x="14.6" y="112.842" width="33.3" height="34.1105" filterUnits="userSpaceOnUse" color-interpolation-filters="sRGB">
<feFlood flood-opacity="0" result="BackgroundImageFix"/>
<feColorMatrix in="SourceAlpha" type="matrix" values="0 0 0 0 0 0 0 0 0 0 0 0 0 0 0 0 0 0 127 0" result="hardAlpha"/>
<feOffset dx="-1" dy="-1"/>
<feGaussianBlur stdDeviation="4.7"/>
<feComposite in2="hardAlpha" operator="out"/>
<feColorMatrix type="matrix" values="0 0 0 0 0.662745 0 0 0 0 0.184314 0 0 0 0 0.184314 0 0 0 1 0"/>
<feBlend mode="normal" in2="BackgroundImageFix" result="effect1_dropShadow_98_350"/>
<feBlend mode="normal" in="SourceGraphic" in2="effect1_dropShadow_98_350" result="shape"/>
</filter>
<filter id="filter11_d_98_350" x="234.825" y="1.89858" width="133.59" height="183.364" filterUnits="userSpaceOnUse" color-interpolation-filters="sRGB">
<feFlood flood-opacity="0" result="BackgroundImageFix"/>
<feColorMatrix in="SourceAlpha" type="matrix" values="0 0 0 0 0 0 0 0 0 0 0 0 0 0 0 0 0 0 127 0" result="hardAlpha"/>
<feOffset dx="-1" dy="-1"/>
<feGaussianBlur stdDeviation="4.7"/>
<feComposite in2="hardAlpha" operator="out"/>
<feColorMatrix type="matrix" values="0 0 0 0 0.662745 0 0 0 0 0.184314 0 0 0 0 0.184314 0 0 0 1 0"/>
<feBlend mode="normal" in2="BackgroundImageFix" result="effect1_dropShadow_98_350"/>
<feBlend mode="normal" in="SourceGraphic" in2="effect1_dropShadow_98_350" result="shape"/>
</filter>
<filter id="filter12_d_98_350" x="254.17" y="10.6413" width="24.2626" height="29.5256" filterUnits="userSpaceOnUse" color-interpolation-filters="sRGB">
<feFlood flood-opacity="0" result="BackgroundImageFix"/>
<feColorMatrix in="SourceAlpha" type="matrix" values="0 0 0 0 0 0 0 0 0 0 0 0 0 0 0 0 0 0 127 0" result="hardAlpha"/>
<feOffset dx="-1" dy="-1"/>
<feGaussianBlur stdDeviation="4.7"/>
<feComposite in2="hardAlpha" operator="out"/>
<feColorMatrix type="matrix" values="0 0 0 0 0.662745 0 0 0 0 0.184314 0 0 0 0 0.184314 0 0 0 1 0"/>
<feBlend mode="normal" in2="BackgroundImageFix" result="effect1_dropShadow_98_350"/>
<feBlend mode="normal" in="SourceGraphic" in2="effect1_dropShadow_98_350" result="shape"/>
</filter>
<filter id="filter13_d_98_350" x="252.699" y="20.5326" width="24.2626" height="29.5256" filterUnits="userSpaceOnUse" color-interpolation-filters="sRGB">
<feFlood flood-opacity="0" result="BackgroundImageFix"/>
<feColorMatrix in="SourceAlpha" type="matrix" values="0 0 0 0 0 0 0 0 0 0 0 0 0 0 0 0 0 0 127 0" result="hardAlpha"/>
<feOffset dx="-1" dy="-1"/>
<feGaussianBlur stdDeviation="4.7"/>
<feComposite in2="hardAlpha" operator="out"/>
<feColorMatrix type="matrix" values="0 0 0 0 0.662745 0 0 0 0 0.184314 0 0 0 0 0.184314 0 0 0 1 0"/>
<feBlend mode="normal" in2="BackgroundImageFix" result="effect1_dropShadow_98_350"/>
<feBlend mode="normal" in="SourceGraphic" in2="effect1_dropShadow_98_350" result="shape"/>
</filter>
<filter id="filter14_d_98_350" x="251.228" y="30.424" width="24.2626" height="29.5256" filterUnits="userSpaceOnUse" color-interpolation-filters="sRGB">
<feFlood flood-opacity="0" result="BackgroundImageFix"/>
<feColorMatrix in="SourceAlpha" type="matrix" values="0 0 0 0 0 0 0 0 0 0 0 0 0 0 0 0 0 0 127 0" result="hardAlpha"/>
<feOffset dx="-1" dy="-1"/>
<feGaussianBlur stdDeviation="4.7"/>
<feComposite in2="hardAlpha" operator="out"/>
<feColorMatrix type="matrix" values="0 0 0 0 0.662745 0 0 0 0 0.184314 0 0 0 0 0.184314 0 0 0 1 0"/>
<feBlend mode="normal" in2="BackgroundImageFix" result="effect1_dropShadow_98_350"/>
<feBlend mode="normal" in="SourceGraphic" in2="effect1_dropShadow_98_350" result="shape"/>
</filter>
<filter id="filter15_d_98_350" x="249.758" y="40.3153" width="24.2626" height="29.5256" filterUnits="userSpaceOnUse" color-interpolation-filters="sRGB">
<feFlood flood-opacity="0" result="BackgroundImageFix"/>
<feColorMatrix in="SourceAlpha" type="matrix" values="0 0 0 0 0 0 0 0 0 0 0 0 0 0 0 0 0 0 127 0" result="hardAlpha"/>
<feOffset dx="-1" dy="-1"/>
<feGaussianBlur stdDeviation="4.7"/>
<feComposite in2="hardAlpha" operator="out"/>
<feColorMatrix type="matrix" values="0 0 0 0 0.662745 0 0 0 0 0.184314 0 0 0 0 0.184314 0 0 0 1 0"/>
<feBlend mode="normal" in2="BackgroundImageFix" result="effect1_dropShadow_98_350"/>
<feBlend mode="normal" in="SourceGraphic" in2="effect1_dropShadow_98_350" result="shape"/>
</filter>
<filter id="filter16_d_98_350" x="248.287" y="50.2064" width="24.2626" height="29.5256" filterUnits="userSpaceOnUse" color-interpolation-filters="sRGB">
<feFlood flood-opacity="0" result="BackgroundImageFix"/>
<feColorMatrix in="SourceAlpha" type="matrix" values="0 0 0 0 0 0 0 0 0 0 0 0 0 0 0 0 0 0 127 0" result="hardAlpha"/>
<feOffset dx="-1" dy="-1"/>
<feGaussianBlur stdDeviation="4.7"/>
<feComposite in2="hardAlpha" operator="out"/>
<feColorMatrix type="matrix" values="0 0 0 0 0.662745 0 0 0 0 0.184314 0 0 0 0 0.184314 0 0 0 1 0"/>
<feBlend mode="normal" in2="BackgroundImageFix" result="effect1_dropShadow_98_350"/>
<feBlend mode="normal" in="SourceGraphic" in2="effect1_dropShadow_98_350" result="shape"/>
</filter>
<filter id="filter17_d_98_350" x="246.817" y="60.0978" width="24.2626" height="29.5256" filterUnits="userSpaceOnUse" color-interpolation-filters="sRGB">
<feFlood flood-opacity="0" result="BackgroundImageFix"/>
<feColorMatrix in="SourceAlpha" type="matrix" values="0 0 0 0 0 0 0 0 0 0 0 0 0 0 0 0 0 0 127 0" result="hardAlpha"/>
<feOffset dx="-1" dy="-1"/>
<feGaussianBlur stdDeviation="4.7"/>
<feComposite in2="hardAlpha" operator="out"/>
<feColorMatrix type="matrix" values="0 0 0 0 0.662745 0 0 0 0 0.184314 0 0 0 0 0.184314 0 0 0 1 0"/>
<feBlend mode="normal" in2="BackgroundImageFix" result="effect1_dropShadow_98_350"/>
<feBlend mode="normal" in="SourceGraphic" in2="effect1_dropShadow_98_350" result="shape"/>
</filter>
<filter id="filter18_d_98_350" x="245.346" y="69.9892" width="24.2626" height="29.5256" filterUnits="userSpaceOnUse" color-interpolation-filters="sRGB">
<feFlood flood-opacity="0" result="BackgroundImageFix"/>
<feColorMatrix in="SourceAlpha" type="matrix" values="0 0 0 0 0 0 0 0 0 0 0 0 0 0 0 0 0 0 127 0" result="hardAlpha"/>
<feOffset dx="-1" dy="-1"/>
<feGaussianBlur stdDeviation="4.7"/>
<feComposite in2="hardAlpha" operator="out"/>
<feColorMatrix type="matrix" values="0 0 0 0 0.662745 0 0 0 0 0.184314 0 0 0 0 0.184314 0 0 0 1 0"/>
<feBlend mode="normal" in2="BackgroundImageFix" result="effect1_dropShadow_98_350"/>
<feBlend mode="normal" in="SourceGraphic" in2="effect1_dropShadow_98_350" result="shape"/>
</filter>
<filter id="filter19_d_98_350" x="243.876" y="79.8803" width="24.2626" height="29.5256" filterUnits="userSpaceOnUse" color-interpolation-filters="sRGB">
<feFlood flood-opacity="0" result="BackgroundImageFix"/>
<feColorMatrix in="SourceAlpha" type="matrix" values="0 0 0 0 0 0 0 0 0 0 0 0 0 0 0 0 0 0 127 0" result="hardAlpha"/>
<feOffset dx="-1" dy="-1"/>
<feGaussianBlur stdDeviation="4.7"/>
<feComposite in2="hardAlpha" operator="out"/>
<feColorMatrix type="matrix" values="0 0 0 0 0.662745 0 0 0 0 0.184314 0 0 0 0 0.184314 0 0 0 1 0"/>
<feBlend mode="normal" in2="BackgroundImageFix" result="effect1_dropShadow_98_350"/>
<feBlend mode="normal" in="SourceGraphic" in2="effect1_dropShadow_98_350" result="shape"/>
</filter>
<filter id="filter20_d_98_350" x="242.405" y="89.7716" width="24.2626" height="29.5256" filterUnits="userSpaceOnUse" color-interpolation-filters="sRGB">
<feFlood flood-opacity="0" result="BackgroundImageFix"/>
<feColorMatrix in="SourceAlpha" type="matrix" values="0 0 0 0 0 0 0 0 0 0 0 0 0 0 0 0 0 0 127 0" result="hardAlpha"/>
<feOffset dx="-1" dy="-1"/>
<feGaussianBlur stdDeviation="4.7"/>
<feComposite in2="hardAlpha" operator="out"/>
<feColorMatrix type="matrix" values="0 0 0 0 0.662745 0 0 0 0 0.184314 0 0 0 0 0.184314 0 0 0 1 0"/>
<feBlend mode="normal" in2="BackgroundImageFix" result="effect1_dropShadow_98_350"/>
<feBlend mode="normal" in="SourceGraphic" in2="effect1_dropShadow_98_350" result="shape"/>
</filter>
<filter id="filter21_d_98_350" x="240.934" y="99.663" width="24.2626" height="29.5256" filterUnits="userSpaceOnUse" color-interpolation-filters="sRGB">
<feFlood flood-opacity="0" result="BackgroundImageFix"/>
<feColorMatrix in="SourceAlpha" type="matrix" values="0 0 0 0 0 0 0 0 0 0 0 0 0 0 0 0 0 0 127 0" result="hardAlpha"/>
<feOffset dx="-1" dy="-1"/>
<feGaussianBlur stdDeviation="4.7"/>
<feComposite in2="hardAlpha" operator="out"/>
<feColorMatrix type="matrix" values="0 0 0 0 0.662745 0 0 0 0 0.184314 0 0 0 0 0.184314 0 0 0 1 0"/>
<feBlend mode="normal" in2="BackgroundImageFix" result="effect1_dropShadow_98_350"/>
<feBlend mode="normal" in="SourceGraphic" in2="effect1_dropShadow_98_350" result="shape"/>
</filter>
<filter id="filter22_d_98_350" x="239.464" y="109.554" width="24.2626" height="29.5256" filterUnits="userSpaceOnUse" color-interpolation-filters="sRGB">
<feFlood flood-opacity="0" result="BackgroundImageFix"/>
<feColorMatrix in="SourceAlpha" type="matrix" values="0 0 0 0 0 0 0 0 0 0 0 0 0 0 0 0 0 0 127 0" result="hardAlpha"/>
<feOffset dx="-1" dy="-1"/>
<feGaussianBlur stdDeviation="4.7"/>
<feComposite in2="hardAlpha" operator="out"/>
<feColorMatrix type="matrix" values="0 0 0 0 0.662745 0 0 0 0 0.184314 0 0 0 0 0.184314 0 0 0 1 0"/>
<feBlend mode="normal" in2="BackgroundImageFix" result="effect1_dropShadow_98_350"/>
<feBlend mode="normal" in="SourceGraphic" in2="effect1_dropShadow_98_350" result="shape"/>
</filter>
<filter id="filter23_d_98_350" x="237.993" y="119.445" width="24.2626" height="29.5256" filterUnits="userSpaceOnUse" color-interpolation-filters="sRGB">
<feFlood flood-opacity="0" result="BackgroundImageFix"/>
<feColorMatrix in="SourceAlpha" type="matrix" values="0 0 0 0 0 0 0 0 0 0 0 0 0 0 0 0 0 0 127 0" result="hardAlpha"/>
<feOffset dx="-1" dy="-1"/>
<feGaussianBlur stdDeviation="4.7"/>
<feComposite in2="hardAlpha" operator="out"/>
<feColorMatrix type="matrix" values="0 0 0 0 0.662745 0 0 0 0 0.184314 0 0 0 0 0.184314 0 0 0 1 0"/>
<feBlend mode="normal" in2="BackgroundImageFix" result="effect1_dropShadow_98_350"/>
<feBlend mode="normal" in="SourceGraphic" in2="effect1_dropShadow_98_350" result="shape"/>
</filter>
<filter id="filter24_d_98_350" x="236.523" y="129.337" width="24.2626" height="29.5256" filterUnits="userSpaceOnUse" color-interpolation-filters="sRGB">
<feFlood flood-opacity="0" result="BackgroundImageFix"/>
<feColorMatrix in="SourceAlpha" type="matrix" values="0 0 0 0 0 0 0 0 0 0 0 0 0 0 0 0 0 0 127 0" result="hardAlpha"/>
<feOffset dx="-1" dy="-1"/>
<feGaussianBlur stdDeviation="4.7"/>
<feComposite in2="hardAlpha" operator="out"/>
<feColorMatrix type="matrix" values="0 0 0 0 0.662745 0 0 0 0 0.184314 0 0 0 0 0.184314 0 0 0 1 0"/>
<feBlend mode="normal" in2="BackgroundImageFix" result="effect1_dropShadow_98_350"/>
<feBlend mode="normal" in="SourceGraphic" in2="effect1_dropShadow_98_350" result="shape"/>
</filter>
<filter id="filter25_d_98_350" x="235.64" y="139.228" width="23.7917" height="25.552" filterUnits="userSpaceOnUse" color-interpolation-filters="sRGB">
<feFlood flood-opacity="0" result="BackgroundImageFix"/>
<feColorMatrix in="SourceAlpha" type="matrix" values="0 0 0 0 0 0 0 0 0 0 0 0 0 0 0 0 0 0 127 0" result="hardAlpha"/>
<feOffset dx="-1" dy="-1"/>
<feGaussianBlur stdDeviation="4.7"/>
<feComposite in2="hardAlpha" operator="out"/>
<feColorMatrix type="matrix" values="0 0 0 0 0.662745 0 0 0 0 0.184314 0 0 0 0 0.184314 0 0 0 1 0"/>
<feBlend mode="normal" in2="BackgroundImageFix" result="effect1_dropShadow_98_350"/>
<feBlend mode="normal" in="SourceGraphic" in2="effect1_dropShadow_98_350" result="shape"/>
</filter>
<filter id="filter26_d_98_350" x="0.593409" y="0.6" width="251.889" height="175.303" filterUnits="userSpaceOnUse" color-interpolation-filters="sRGB">
<feFlood flood-opacity="0" result="BackgroundImageFix"/>
<feColorMatrix in="SourceAlpha" type="matrix" values="0 0 0 0 0 0 0 0 0 0 0 0 0 0 0 0 0 0 127 0" result="hardAlpha"/>
<feOffset dx="-1" dy="-1"/>
<feGaussianBlur stdDeviation="4.7"/>
<feComposite in2="hardAlpha" operator="out"/>
<feColorMatrix type="matrix" values="0 0 0 0 0.662745 0 0 0 0 0.184314 0 0 0 0 0.184314 0 0 0 1 0"/>
<feBlend mode="normal" in2="BackgroundImageFix" result="effect1_dropShadow_98_350"/>
<feBlend mode="normal" in="SourceGraphic" in2="effect1_dropShadow_98_350" result="shape"/>
</filter>
<filter id="filter27_d_98_350" x="228.85" y="9.35" width="23.05" height="29.3" filterUnits="userSpaceOnUse" color-interpolation-filters="sRGB">
<feFlood flood-opacity="0" result="BackgroundImageFix"/>
<feColorMatrix in="SourceAlpha" type="matrix" values="0 0 0 0 0 0 0 0 0 0 0 0 0 0 0 0 0 0 127 0" result="hardAlpha"/>
<feOffset dx="-1" dy="-1"/>
<feGaussianBlur stdDeviation="4.7"/>
<feComposite in2="hardAlpha" operator="out"/>
<feColorMatrix type="matrix" values="0 0 0 0 0.662745 0 0 0 0 0.184314 0 0 0 0 0.184314 0 0 0 1 0"/>
<feBlend mode="normal" in2="BackgroundImageFix" result="effect1_dropShadow_98_350"/>
<feBlend mode="normal" in="SourceGraphic" in2="effect1_dropShadow_98_350" result="shape"/>
</filter>
<filter id="filter28_d_98_350" x="228.85" y="19.35" width="23.05" height="29.3" filterUnits="userSpaceOnUse" color-interpolation-filters="sRGB">
<feFlood flood-opacity="0" result="BackgroundImageFix"/>
<feColorMatrix in="SourceAlpha" type="matrix" values="0 0 0 0 0 0 0 0 0 0 0 0 0 0 0 0 0 0 127 0" result="hardAlpha"/>
<feOffset dx="-1" dy="-1"/>
<feGaussianBlur stdDeviation="4.7"/>
<feComposite in2="hardAlpha" operator="out"/>
<feColorMatrix type="matrix" values="0 0 0 0 0.662745 0 0 0 0 0.184314 0 0 0 0 0.184314 0 0 0 1 0"/>
<feBlend mode="normal" in2="BackgroundImageFix" result="effect1_dropShadow_98_350"/>
<feBlend mode="normal" in="SourceGraphic" in2="effect1_dropShadow_98_350" result="shape"/>
</filter>
<filter id="filter29_d_98_350" x="228.85" y="29.35" width="23.05" height="29.3" filterUnits="userSpaceOnUse" color-interpolation-filters="sRGB">
<feFlood flood-opacity="0" result="BackgroundImageFix"/>
<feColorMatrix in="SourceAlpha" type="matrix" values="0 0 0 0 0 0 0 0 0 0 0 0 0 0 0 0 0 0 127 0" result="hardAlpha"/>
<feOffset dx="-1" dy="-1"/>
<feGaussianBlur stdDeviation="4.7"/>
<feComposite in2="hardAlpha" operator="out"/>
<feColorMatrix type="matrix" values="0 0 0 0 0.662745 0 0 0 0 0.184314 0 0 0 0 0.184314 0 0 0 1 0"/>
<feBlend mode="normal" in2="BackgroundImageFix" result="effect1_dropShadow_98_350"/>
<feBlend mode="normal" in="SourceGraphic" in2="effect1_dropShadow_98_350" result="shape"/>
</filter>
<filter id="filter30_d_98_350" x="228.85" y="39.35" width="23.05" height="29.3" filterUnits="userSpaceOnUse" color-interpolation-filters="sRGB">
<feFlood flood-opacity="0" result="BackgroundImageFix"/>
<feColorMatrix in="SourceAlpha" type="matrix" values="0 0 0 0 0 0 0 0 0 0 0 0 0 0 0 0 0 0 127 0" result="hardAlpha"/>
<feOffset dx="-1" dy="-1"/>
<feGaussianBlur stdDeviation="4.7"/>
<feComposite in2="hardAlpha" operator="out"/>
<feColorMatrix type="matrix" values="0 0 0 0 0.662745 0 0 0 0 0.184314 0 0 0 0 0.184314 0 0 0 1 0"/>
<feBlend mode="normal" in2="BackgroundImageFix" result="effect1_dropShadow_98_350"/>
<feBlend mode="normal" in="SourceGraphic" in2="effect1_dropShadow_98_350" result="shape"/>
</filter>
<filter id="filter31_d_98_350" x="228.85" y="49.35" width="23.05" height="29.3" filterUnits="userSpaceOnUse" color-interpolation-filters="sRGB">
<feFlood flood-opacity="0" result="BackgroundImageFix"/>
<feColorMatrix in="SourceAlpha" type="matrix" values="0 0 0 0 0 0 0 0 0 0 0 0 0 0 0 0 0 0 127 0" result="hardAlpha"/>
<feOffset dx="-1" dy="-1"/>
<feGaussianBlur stdDeviation="4.7"/>
<feComposite in2="hardAlpha" operator="out"/>
<feColorMatrix type="matrix" values="0 0 0 0 0.662745 0 0 0 0 0.184314 0 0 0 0 0.184314 0 0 0 1 0"/>
<feBlend mode="normal" in2="BackgroundImageFix" result="effect1_dropShadow_98_350"/>
<feBlend mode="normal" in="SourceGraphic" in2="effect1_dropShadow_98_350" result="shape"/>
</filter>
<filter id="filter32_d_98_350" x="228.85" y="59.35" width="23.05" height="29.3" filterUnits="userSpaceOnUse" color-interpolation-filters="sRGB">
<feFlood flood-opacity="0" result="BackgroundImageFix"/>
<feColorMatrix in="SourceAlpha" type="matrix" values="0 0 0 0 0 0 0 0 0 0 0 0 0 0 0 0 0 0 127 0" result="hardAlpha"/>
<feOffset dx="-1" dy="-1"/>
<feGaussianBlur stdDeviation="4.7"/>
<feComposite in2="hardAlpha" operator="out"/>
<feColorMatrix type="matrix" values="0 0 0 0 0.662745 0 0 0 0 0.184314 0 0 0 0 0.184314 0 0 0 1 0"/>
<feBlend mode="normal" in2="BackgroundImageFix" result="effect1_dropShadow_98_350"/>
<feBlend mode="normal" in="SourceGraphic" in2="effect1_dropShadow_98_350" result="shape"/>
</filter>
<filter id="filter33_d_98_350" x="228.85" y="69.35" width="23.05" height="29.3" filterUnits="userSpaceOnUse" color-interpolation-filters="sRGB">
<feFlood flood-opacity="0" result="BackgroundImageFix"/>
<feColorMatrix in="SourceAlpha" type="matrix" values="0 0 0 0 0 0 0 0 0 0 0 0 0 0 0 0 0 0 127 0" result="hardAlpha"/>
<feOffset dx="-1" dy="-1"/>
<feGaussianBlur stdDeviation="4.7"/>
<feComposite in2="hardAlpha" operator="out"/>
<feColorMatrix type="matrix" values="0 0 0 0 0.662745 0 0 0 0 0.184314 0 0 0 0 0.184314 0 0 0 1 0"/>
<feBlend mode="normal" in2="BackgroundImageFix" result="effect1_dropShadow_98_350"/>
<feBlend mode="normal" in="SourceGraphic" in2="effect1_dropShadow_98_350" result="shape"/>
</filter>
<filter id="filter34_d_98_350" x="228.85" y="79.35" width="23.05" height="29.3" filterUnits="userSpaceOnUse" color-interpolation-filters="sRGB">
<feFlood flood-opacity="0" result="BackgroundImageFix"/>
<feColorMatrix in="SourceAlpha" type="matrix" values="0 0 0 0 0 0 0 0 0 0 0 0 0 0 0 0 0 0 127 0" result="hardAlpha"/>
<feOffset dx="-1" dy="-1"/>
<feGaussianBlur stdDeviation="4.7"/>
<feComposite in2="hardAlpha" operator="out"/>
<feColorMatrix type="matrix" values="0 0 0 0 0.662745 0 0 0 0 0.184314 0 0 0 0 0.184314 0 0 0 1 0"/>
<feBlend mode="normal" in2="BackgroundImageFix" result="effect1_dropShadow_98_350"/>
<feBlend mode="normal" in="SourceGraphic" in2="effect1_dropShadow_98_350" result="shape"/>
</filter>
<filter id="filter35_d_98_350" x="228.85" y="89.35" width="23.05" height="29.3" filterUnits="userSpaceOnUse" color-interpolation-filters="sRGB">
<feFlood flood-opacity="0" result="BackgroundImageFix"/>
<feColorMatrix in="SourceAlpha" type="matrix" values="0 0 0 0 0 0 0 0 0 0 0 0 0 0 0 0 0 0 127 0" result="hardAlpha"/>
<feOffset dx="-1" dy="-1"/>
<feGaussianBlur stdDeviation="4.7"/>
<feComposite in2="hardAlpha" operator="out"/>
<feColorMatrix type="matrix" values="0 0 0 0 0.662745 0 0 0 0 0.184314 0 0 0 0 0.184314 0 0 0 1 0"/>
<feBlend mode="normal" in2="BackgroundImageFix" result="effect1_dropShadow_98_350"/>
<feBlend mode="normal" in="SourceGraphic" in2="effect1_dropShadow_98_350" result="shape"/>
</filter>
<filter id="filter36_d_98_350" x="228.85" y="99.35" width="23.05" height="29.3" filterUnits="userSpaceOnUse" color-interpolation-filters="sRGB">
<feFlood flood-opacity="0" result="BackgroundImageFix"/>
<feColorMatrix in="SourceAlpha" type="matrix" values="0 0 0 0 0 0 0 0 0 0 0 0 0 0 0 0 0 0 127 0" result="hardAlpha"/>
<feOffset dx="-1" dy="-1"/>
<feGaussianBlur stdDeviation="4.7"/>
<feComposite in2="hardAlpha" operator="out"/>
<feColorMatrix type="matrix" values="0 0 0 0 0.662745 0 0 0 0 0.184314 0 0 0 0 0.184314 0 0 0 1 0"/>
<feBlend mode="normal" in2="BackgroundImageFix" result="effect1_dropShadow_98_350"/>
<feBlend mode="normal" in="SourceGraphic" in2="effect1_dropShadow_98_350" result="shape"/>
</filter>
<filter id="filter37_d_98_350" x="228.85" y="109.35" width="23.05" height="29.3" filterUnits="userSpaceOnUse" color-interpolation-filters="sRGB">
<feFlood flood-opacity="0" result="BackgroundImageFix"/>
<feColorMatrix in="SourceAlpha" type="matrix" values="0 0 0 0 0 0 0 0 0 0 0 0 0 0 0 0 0 0 127 0" result="hardAlpha"/>
<feOffset dx="-1" dy="-1"/>
<feGaussianBlur stdDeviation="4.7"/>
<feComposite in2="hardAlpha" operator="out"/>
<feColorMatrix type="matrix" values="0 0 0 0 0.662745 0 0 0 0 0.184314 0 0 0 0 0.184314 0 0 0 1 0"/>
<feBlend mode="normal" in2="BackgroundImageFix" result="effect1_dropShadow_98_350"/>
<feBlend mode="normal" in="SourceGraphic" in2="effect1_dropShadow_98_350" result="shape"/>
</filter>
<filter id="filter38_d_98_350" x="228.85" y="119.35" width="23.05" height="29.3" filterUnits="userSpaceOnUse" color-interpolation-filters="sRGB">
<feFlood flood-opacity="0" result="BackgroundImageFix"/>
<feColorMatrix in="SourceAlpha" type="matrix" values="0 0 0 0 0 0 0 0 0 0 0 0 0 0 0 0 0 0 127 0" result="hardAlpha"/>
<feOffset dx="-1" dy="-1"/>
<feGaussianBlur stdDeviation="4.7"/>
<feComposite in2="hardAlpha" operator="out"/>
<feColorMatrix type="matrix" values="0 0 0 0 0.662745 0 0 0 0 0.184314 0 0 0 0 0.184314 0 0 0 1 0"/>
<feBlend mode="normal" in2="BackgroundImageFix" result="effect1_dropShadow_98_350"/>
<feBlend mode="normal" in="SourceGraphic" in2="effect1_dropShadow_98_350" result="shape"/>
</filter>
<filter id="filter39_d_98_350" x="228.85" y="129.35" width="23.05" height="29.3" filterUnits="userSpaceOnUse" color-interpolation-filters="sRGB">
<feFlood flood-opacity="0" result="BackgroundImageFix"/>
<feColorMatrix in="SourceAlpha" type="matrix" values="0 0 0 0 0 0 0 0 0 0 0 0 0 0 0 0 0 0 127 0" result="hardAlpha"/>
<feOffset dx="-1" dy="-1"/>
<feGaussianBlur stdDeviation="4.7"/>
<feComposite in2="hardAlpha" operator="out"/>
<feColorMatrix type="matrix" values="0 0 0 0 0.662745 0 0 0 0 0.184314 0 0 0 0 0.184314 0 0 0 1 0"/>
<feBlend mode="normal" in2="BackgroundImageFix" result="effect1_dropShadow_98_350"/>
<feBlend mode="normal" in="SourceGraphic" in2="effect1_dropShadow_98_350" result="shape"/>
</filter>
<filter id="filter40_d_98_350" x="228.85" y="139.35" width="23.05" height="25.3" filterUnits="userSpaceOnUse" color-interpolation-filters="sRGB">
<feFlood flood-opacity="0" result="BackgroundImageFix"/>
<feColorMatrix in="SourceAlpha" type="matrix" values="0 0 0 0 0 0 0 0 0 0 0 0 0 0 0 0 0 0 127 0" result="hardAlpha"/>
<feOffset dx="-1" dy="-1"/>
<feGaussianBlur stdDeviation="4.7"/>
<feComposite in2="hardAlpha" operator="out"/>
<feColorMatrix type="matrix" values="0 0 0 0 0.662745 0 0 0 0 0.184314 0 0 0 0 0.184314 0 0 0 1 0"/>
<feBlend mode="normal" in2="BackgroundImageFix" result="effect1_dropShadow_98_350"/>
<feBlend mode="normal" in="SourceGraphic" in2="effect1_dropShadow_98_350" result="shape"/>
</filter>
</defs>
</svg>
